<svg version="1.1" id="Layer_1" xmlns="http://www.w3.org/2000/svg" xmlns:xlink="http://www.w3.org/1999/xlink" x="0px" y="0px"
	 width="100%" viewBox="0 0 2000 545" enable-background="new 0 0 2000 545" xml:space="preserve">
<path fill="#FFFFFF" opacity="1.000000" stroke="none" 
	d="
M1442.000000,546.000000 
	C961.333313,546.000000 481.166656,546.000000 1.000000,546.000000 
	C1.000000,364.333344 1.000000,182.666672 1.000000,1.000000 
	C667.666687,1.000000 1334.333374,1.000000 2001.000000,1.000000 
	C2001.000000,182.666672 2001.000000,364.333344 2001.000000,546.000000 
	C1814.833374,546.000000 1628.666626,546.000000 1442.000000,546.000000 
M1658.979004,350.163055 
	C1659.597168,346.108551 1660.215332,342.054047 1660.979370,337.166260 
	C1661.357422,334.125366 1661.735352,331.084473 1662.787842,327.655365 
	C1662.803101,326.103424 1662.818237,324.551514 1663.014160,322.533325 
	C1663.141968,322.229645 1663.269897,321.925964 1663.921143,320.959259 
	C1664.172607,319.210144 1664.461792,317.465515 1664.669067,315.711151 
	C1665.405762,309.475922 1666.114380,303.237396 1667.188110,296.290558 
	C1667.675781,293.850922 1668.163452,291.411285 1668.694092,288.756226 
	C1658.659912,286.104950 1648.903198,283.527008 1639.059692,280.926147 
	C1637.796387,290.360382 1636.481445,300.180176 1635.021118,310.860413 
	C1634.975830,312.892914 1634.930420,314.925446 1634.194580,317.359314 
	C1631.746460,318.104736 1629.344116,319.126678 1626.841187,319.540009 
	C1620.982666,320.507416 1615.075928,321.183044 1609.049072,321.995605 
	C1610.973999,307.366302 1612.814331,293.379272 1614.778198,278.454224 
	C1603.208740,283.587128 1592.103882,288.513885 1581.184814,293.358246 
	C1581.093872,294.096924 1581.018311,294.425201 1581.018188,294.753448 
	C1581.008301,322.573944 1581.003784,350.394470 1581.000366,378.214966 
	C1580.998657,391.392120 1580.990356,391.414917 1592.960693,396.463196 
	C1596.342285,397.889282 1599.797974,399.139343 1604.016357,400.779938 
	C1604.389282,395.838562 1604.910767,391.794037 1604.957886,387.743988 
	C1605.082031,377.083649 1605.095825,366.419495 1604.935059,355.760132 
	C1604.893066,352.969421 1605.696533,351.369476 1608.490112,351.028839 
	C1614.657471,350.276825 1620.829468,349.562805 1627.774414,348.997284 
	C1628.238525,350.331573 1628.702515,351.665833 1629.020996,353.873871 
	C1627.760376,368.484222 1626.499756,383.094604 1625.163818,398.579407 
	C1629.369507,396.908508 1633.118286,395.591248 1636.718750,393.948761 
	C1642.237305,391.431213 1647.653687,388.689697 1653.817871,385.605927 
	C1654.082031,383.344116 1654.333496,381.080750 1654.612793,378.820831 
	C1655.346558,372.879730 1656.092163,366.940155 1657.086670,360.414276 
	C1657.326294,359.685303 1657.566040,358.956299 1657.973999,357.425201 
	C1657.927124,356.610046 1657.880371,355.794922 1658.154053,354.329590 
	C1658.380493,353.219543 1658.607056,352.109497 1658.979004,350.163055 
M213.000000,221.500000 
	C213.000000,191.075302 213.000000,160.650604 213.000000,130.000504 
	C228.536652,130.000504 243.510330,130.000320 258.484009,130.001373 
	C258.983826,130.001404 259.505249,129.922195 259.980408,130.033859 
	C284.442352,135.782196 299.116028,158.435379 293.775879,182.202209 
	C289.927734,199.328720 273.564056,214.927261 254.577408,215.127594 
	C253.375595,215.140259 251.175217,216.961960 251.156204,217.974289 
	C250.919769,230.570862 251.001587,243.173431 251.001587,256.484985 
	C257.292480,255.857849 263.106995,255.882004 268.627502,254.620087 
	C289.069397,249.947311 306.209839,239.681274 318.751373,222.660599 
	C333.856140,202.161209 339.076874,179.164688 333.563660,154.293701 
	C329.092072,134.121613 318.278351,117.548637 301.602264,105.204720 
	C288.068848,95.187027 272.880127,89.152962 255.830948,89.043945 
	C229.670547,88.876663 203.508286,89.000000 177.346817,89.000000 
	C175.597092,89.000000 173.847366,89.000000 172.000000,89.000000 
	C172.000000,144.667542 172.024460,199.649704 171.956726,254.631744 
	C171.950882,259.375946 171.470505,264.133606 170.976166,268.860504 
	C169.691757,281.141815 163.152435,290.193054 153.345886,297.238647 
	C146.094376,302.448547 138.036682,305.207886 129.323242,305.224884 
	C129.323242,319.078064 129.323242,332.488556 129.323242,346.674377 
	C135.532104,345.739471 141.383636,345.204742 147.072845,343.939972 
	C168.224915,339.237518 184.900513,327.817657 197.455704,310.129944 
	C208.148148,295.066467 212.586914,278.142151 212.951813,259.991577 
	C213.202957,247.499115 213.000000,234.997513 213.000000,221.500000 
M728.000000,298.439575 
	C728.000000,277.782806 728.069153,257.125641 727.954224,236.469513 
	C727.923218,230.895004 727.772827,225.255753 726.923950,219.762634 
	C723.439148,197.212311 705.339355,181.834549 683.116577,181.131317 
	C665.408203,180.570938 650.275024,186.986862 638.880066,201.080811 
	C621.901550,176.831757 585.677124,174.535919 563.994751,194.862854 
	C563.994751,191.479111 563.994751,188.420563 563.994751,185.197296 
	C550.878845,185.197296 538.138855,185.197296 525.358154,185.197296 
	C525.358154,225.571960 525.358154,265.748260 525.358154,305.643921 
	C538.455139,305.643921 551.192749,305.643921 564.000000,305.643921 
	C564.000000,290.464996 563.885437,275.640747 564.043945,260.819427 
	C564.135620,252.247574 564.039368,243.597839 565.152954,235.131149 
	C566.693420,223.418533 577.108643,214.012558 591.378601,216.866440 
	C598.896851,218.370041 607.083069,226.968872 607.032227,237.181335 
	C606.925964,258.503967 607.000000,279.827515 607.000000,301.150696 
	C607.000000,302.733124 607.000000,304.315521 607.000000,305.660645 
	C620.421387,305.660645 633.158325,305.660645 646.000000,305.660645 
	C646.000000,285.005707 645.618042,264.678375 646.229736,244.381012 
	C646.416382,238.189804 648.487122,231.668732 651.218689,226.037949 
	C654.698792,218.864471 664.447144,214.003555 674.751648,217.069199 
	C683.084351,219.548187 688.884033,225.719833 688.954834,236.106720 
	C689.103638,257.928650 688.995544,279.752289 689.010193,301.575226 
	C689.011169,303.004272 689.158142,304.433228 689.227539,305.686951 
	C702.367188,305.686951 715.102844,305.686951 728.000000,305.686951 
	C728.000000,303.392517 728.000000,301.407898 728.000000,298.439575 
M46.000000,143.507935 
	C46.000000,139.072739 46.000000,134.637543 46.000000,129.827972 
	C73.971992,129.827972 101.375366,129.827972 128.715256,129.827972 
	C128.715256,116.027214 128.715256,102.623184 128.715256,89.279709 
	C87.364136,89.279709 46.298374,89.279709 5.000000,89.279709 
	C5.000000,91.366623 5.000000,93.175858 5.000000,94.985092 
	C5.000000,151.472870 4.981095,207.960663 5.042789,264.448364 
	C5.046876,268.191254 5.528947,271.951324 6.019844,275.672913 
	C8.316322,293.082947 16.299845,307.802795 28.088734,320.467163 
	C36.580822,329.589874 46.919174,336.455750 58.590477,340.695679 
	C68.243553,344.202423 78.273811,347.007538 89.000000,345.709656 
	C89.000000,334.365601 89.000031,323.380890 88.999977,312.396149 
	C88.999947,305.510559 88.996414,305.550354 82.354561,304.970276 
	C80.767204,304.831604 79.193344,304.398804 77.643959,303.986084 
	C59.618031,299.184021 46.028255,282.914032 46.011322,264.478760 
	C45.974594,224.487442 46.000000,184.496063 46.000000,143.507935 
M761.029236,202.658890 
	C759.683105,204.471863 758.250305,206.227402 757.004456,208.106857 
	C747.126282,223.008469 744.109802,239.272293 746.950806,256.869171 
	C749.745300,274.178436 757.916992,288.097046 772.394531,297.989746 
	C788.911316,309.275879 807.213623,312.147308 826.575867,307.939667 
	C847.310791,303.433807 861.857056,291.296143 870.001221,271.715271 
	C859.938660,269.461426 850.080200,267.177856 840.182129,265.081512 
	C837.152222,264.439789 835.046753,265.334381 832.887451,268.309967 
	C825.599792,278.353119 814.551331,279.790985 803.673096,277.587646 
	C792.728882,275.370972 786.907166,266.892853 784.367554,256.000000 
	C786.314819,256.000000 787.978577,256.000000 789.642334,256.000000 
	C815.293457,256.000000 840.944580,256.000427 866.595703,255.999741 
	C872.998718,255.999573 873.112244,255.995300 872.955872,249.361206 
	C872.867310,245.607193 872.343140,241.862793 871.998352,238.115616 
	C870.740356,224.446259 866.380493,211.972321 857.089905,201.660355 
	C842.382385,185.336121 823.900024,179.558838 802.249207,181.899811 
	C786.027588,183.653763 772.686646,190.579315 761.029236,202.658890 
M1081.401855,162.936676 
	C1096.966187,154.735687 1113.940674,150.925430 1131.199829,147.582901 
	C1125.494995,139.529144 1120.191772,131.949615 1114.773438,124.453140 
	C1113.272217,122.376205 1111.774658,120.453575 1108.393433,121.871239 
	C1105.458130,123.101990 1102.064209,123.186951 1098.938843,124.024330 
	C1078.652710,129.459549 1059.308594,136.670975 1045.156860,153.351135 
	C1032.978638,167.705383 1025.951538,183.457214 1028.850830,203.089600 
	C1033.497314,234.552292 1062.217041,249.769501 1090.422974,242.267029 
	C1101.334473,239.364731 1111.062378,234.262222 1119.269653,226.820419 
	C1129.596924,217.456299 1140.008789,208.000168 1147.141602,195.588943 
	C1140.095459,184.524506 1133.162231,173.637512 1126.316528,162.887833 
	C1112.010498,166.003830 1098.230957,168.942734 1084.494141,172.068909 
	C1082.578125,172.504929 1079.719116,173.477097 1079.259033,174.855942 
	C1076.637451,182.711960 1074.610840,190.766571 1072.206543,199.382645 
	C1084.739624,198.329376 1096.626953,197.330368 1108.763306,196.310440 
	C1108.354980,196.872803 1108.012329,197.388672 1107.626221,197.869690 
	C1098.448242,209.302551 1085.977173,211.456406 1072.456299,209.922638 
	C1056.774780,208.143738 1054.593384,192.072235 1058.567749,182.879517 
	C1062.903931,172.849716 1071.537964,167.713867 1081.401855,162.936676 
M1280.898071,400.995270 
	C1293.060059,401.749908 1304.789062,399.825928 1315.510620,394.002014 
	C1332.386597,384.834991 1345.311279,371.201569 1356.434937,355.821045 
	C1357.507324,354.338165 1357.488159,350.910370 1356.498901,349.283539 
	C1351.019531,340.273102 1344.936523,331.631042 1339.396851,322.655090 
	C1337.853638,320.154846 1336.612183,319.844910 1333.911499,320.478912 
	C1323.808960,322.850525 1313.693848,325.339233 1303.447144,326.873474 
	C1294.746460,328.176178 1288.856567,331.181305 1287.805542,340.943695 
	C1287.273560,345.885651 1285.099121,350.650818 1283.416748,356.343842 
	C1296.532471,355.196136 1308.502075,354.148743 1320.574097,353.092377 
	C1311.566284,363.737396 1300.605347,368.093353 1286.703247,367.205872 
	C1270.558594,366.175262 1265.630493,352.126984 1268.910767,341.995361 
	C1271.366577,334.409882 1276.505737,329.102966 1282.973755,325.050842 
	C1300.992920,313.762085 1321.145874,308.445740 1342.646362,304.490936 
	C1338.600830,298.929779 1333.929443,294.144958 1331.223267,288.429718 
	C1326.374146,278.189087 1319.526367,278.013611 1309.874512,280.812378 
	C1287.685425,287.246582 1267.064209,295.625214 1252.490112,314.886505 
	C1241.227905,329.770691 1237.117920,346.230682 1241.182373,364.228729 
	C1243.592896,374.902802 1248.401611,384.629272 1257.846191,391.520447 
	C1264.597046,396.446075 1272.131592,398.932739 1280.898071,400.995270 
M1862.931885,282.431122 
	C1858.301392,281.602753 1853.695801,280.581512 1849.035767,279.983002 
	C1836.234009,278.338867 1823.491699,278.279022 1810.713745,280.814209 
	C1806.807861,281.589142 1805.317749,283.262604 1803.963135,286.732025 
	C1795.787231,307.672211 1787.339233,328.506531 1778.931519,349.355774 
	C1775.195190,358.621552 1771.340332,367.839569 1767.611816,376.903198 
	C1778.004028,384.750824 1787.866333,392.198364 1798.582520,400.290588 
	C1804.479736,387.443665 1803.687134,373.128387 1807.806519,359.778046 
	C1827.079468,373.096405 1846.115967,386.251343 1865.142578,399.399506 
	C1871.036865,386.398743 1876.641357,374.036957 1882.523682,361.062225 
	C1863.463257,357.215759 1844.983154,353.486450 1826.454956,349.747406 
	C1835.800415,344.561615 1845.207886,339.794647 1854.143555,334.265137 
	C1864.656250,327.759735 1874.105225,319.980774 1876.599609,306.849060 
	C1878.418823,297.271667 1875.222900,285.164948 1862.931885,282.431122 
M1192.393311,236.937439 
	C1203.543823,232.615936 1214.837769,228.623459 1225.791748,223.850800 
	C1232.472656,220.939957 1241.987671,220.968399 1241.869019,209.603745 
	C1241.801880,203.164398 1243.248657,196.709244 1244.040405,190.034622 
	C1225.243164,195.159454 1206.910522,200.157578 1187.527954,205.441971 
	C1188.970703,199.429062 1190.130005,194.289276 1191.521973,189.213272 
	C1191.682251,188.628540 1193.110474,188.138916 1193.996094,188.048569 
	C1198.243042,187.615387 1202.618530,187.827606 1206.735229,186.881973 
	C1212.606079,185.533386 1220.775024,188.602783 1222.734009,178.828659 
	C1223.715210,173.932755 1225.749023,169.247787 1227.307983,164.463623 
	C1216.570190,165.006226 1206.742676,165.484970 1196.917603,166.011154 
	C1194.267944,166.153030 1192.662842,165.285599 1193.038818,162.349609 
	C1193.307129,160.255402 1193.409668,158.065948 1194.146240,156.132294 
	C1194.619629,154.889587 1196.033203,153.233887 1197.154907,153.127350 
	C1209.741455,151.931946 1222.339844,150.654419 1234.964478,150.172928 
	C1239.939087,149.983231 1242.921265,149.371567 1244.704346,144.001892 
	C1247.261353,136.301804 1251.007202,128.996475 1254.038574,122.000076 
	C1242.438354,122.000076 1231.360596,122.000099 1220.282959,122.000069 
	C1206.123413,122.000031 1191.963501,122.057861 1177.804810,121.951202 
	C1174.963867,121.929794 1173.412964,122.423210 1172.599243,125.643600 
	C1169.271606,138.810989 1165.637329,151.902802 1161.979370,164.984192 
	C1158.463989,177.555389 1154.621216,190.037415 1151.283691,202.654251 
	C1150.467407,205.739609 1149.712891,210.149857 1151.242676,212.322617 
	C1158.185059,222.182922 1165.886963,231.516083 1173.520630,240.871704 
	C1174.387085,241.933731 1176.781860,242.704681 1178.058594,242.304504 
	C1182.671021,240.858780 1187.108643,238.854950 1192.393311,236.937439 
M1674.007935,352.550690 
	C1672.968018,356.795410 1671.743774,361.007538 1670.984497,365.301880 
	C1670.705933,366.878723 1671.003052,369.050903 1671.932373,370.268524 
	C1678.474609,378.841187 1685.554688,387.018402 1691.811157,395.787079 
	C1694.557739,399.636383 1696.876709,400.244324 1701.010864,398.586884 
	C1717.667358,391.908936 1734.427002,385.488403 1751.137085,378.943939 
	C1756.435425,376.868896 1761.914673,375.451385 1761.871582,367.646698 
	C1761.833984,360.869202 1763.310059,354.083313 1764.159668,346.944000 
	C1745.241333,352.129364 1726.913940,357.152832 1707.433105,362.492401 
	C1708.772827,357.376190 1710.308350,353.278015 1710.803345,349.057800 
	C1711.193481,345.732788 1712.453247,345.078369 1715.487305,344.910339 
	C1722.519287,344.520844 1729.554932,343.860596 1736.519409,342.836395 
	C1738.243896,342.582825 1740.460571,340.845612 1741.147583,339.234589 
	C1743.640869,333.387024 1745.580811,327.303436 1747.787476,321.146912 
	C1736.003418,321.901733 1724.706787,322.625336 1712.727417,323.392670 
	C1713.631958,318.456970 1714.377319,314.389435 1715.175903,310.031403 
	C1727.468628,309.009918 1739.574707,307.057678 1751.630981,307.327667 
	C1759.962158,307.514221 1764.072510,305.071686 1766.457031,297.313507 
	C1768.427979,290.900787 1771.673950,284.879944 1774.651733,277.999969 
	C1772.149536,277.999969 1770.527832,277.957886 1768.908936,278.006775 
	C1758.315552,278.326630 1747.724976,278.790680 1737.129395,278.963501 
	C1726.967163,279.129272 1716.800171,278.968109 1706.635498,279.015411 
	C1702.489014,279.034698 1697.322266,277.773926 1694.496704,279.762390 
	C1691.893433,281.594421 1691.807861,287.001678 1690.609253,290.832764 
	C1690.078369,292.529907 1689.472290,294.206390 1689.011353,295.922089 
	C1684.017334,314.515015 1679.045654,333.113922 1674.007935,352.550690 
M1411.182861,344.935974 
	C1416.033936,344.290588 1420.927002,343.857269 1425.717163,342.905212 
	C1427.926758,342.466003 1431.060547,341.547638 1431.832642,339.923157 
	C1434.658813,333.977264 1436.668335,327.643250 1439.063965,321.245758 
	C1427.239746,321.934235 1415.705078,322.605865 1403.814819,323.298187 
	C1404.759644,318.303497 1405.509277,314.340515 1406.369873,309.791656 
	C1420.610107,308.861511 1434.854736,307.813080 1449.116211,307.098969 
	C1451.974976,306.955811 1453.711060,306.270966 1454.819580,303.618408 
	C1458.065918,295.849274 1461.432495,288.130371 1465.077759,279.632324 
	C1463.102783,279.076630 1461.182129,278.051239 1459.277588,278.080139 
	C1448.015015,278.250977 1436.758179,278.785553 1425.495483,278.965027 
	C1415.166016,279.129639 1404.831909,279.000031 1394.499756,279.000061 
	C1385.273560,279.000092 1385.101440,278.952972 1382.689819,287.755981 
	C1375.723511,313.183594 1368.857666,338.639282 1362.139282,364.133179 
	C1361.640747,366.024658 1361.932495,368.819519 1363.039307,370.324921 
	C1369.704834,379.390228 1376.713135,388.203705 1383.612549,397.096863 
	C1385.494141,399.522369 1387.426880,400.541290 1390.755981,399.080719 
	C1398.302246,395.770111 1406.088623,393.009644 1413.756836,389.973785 
	C1426.510986,384.924347 1439.249268,379.834259 1451.782227,374.845642 
	C1452.995972,365.324707 1454.145264,356.310211 1455.336670,346.964172 
	C1436.183228,352.177643 1417.852661,357.167145 1398.837402,362.343018 
	C1399.685425,358.431244 1400.320068,355.315674 1401.040161,352.219971 
	C1402.717407,345.007599 1402.734131,345.011475 1411.182861,344.935974 
M1227.993774,353.265991 
	C1228.007568,352.266754 1227.921875,351.254578 1228.049805,350.270172 
	C1230.395020,332.226685 1229.955322,314.567780 1220.033691,298.484589 
	C1214.528198,289.559906 1207.866089,281.398834 1196.628418,280.108765 
	C1175.863159,277.724945 1161.605713,288.213013 1150.734497,304.687683 
	C1141.580566,318.559967 1138.690918,333.882812 1138.817017,350.341187 
	C1138.920044,363.773834 1142.180054,375.876465 1150.239868,386.412994 
	C1157.091797,395.370514 1166.394775,401.048584 1177.926025,400.879669 
	C1196.059937,400.614044 1209.665283,391.492401 1218.869995,376.435883 
	C1222.999268,369.681427 1224.986450,361.617462 1227.993774,353.265991 
M1033.723877,319.999939 
	C1045.760620,319.999939 1057.797363,319.999939 1069.788818,319.999939 
	C1061.352051,349.183258 1053.110229,377.692230 1044.577026,407.209015 
	C1057.215454,403.111145 1068.068970,399.392151 1079.054321,396.115906 
	C1084.410645,394.518494 1088.320068,393.477417 1088.383057,385.945862 
	C1088.482544,374.069672 1090.761963,362.218750 1091.977417,350.342712 
	C1093.072510,339.643433 1093.977905,328.924744 1094.939697,318.509094 
	C1105.835571,317.984650 1116.061401,317.444122 1126.292603,317.035187 
	C1128.741455,316.937317 1130.322388,316.883636 1131.285522,313.746185 
	C1132.986450,308.206146 1135.763184,302.998962 1138.050537,297.635834 
	C1140.884277,290.991608 1143.678467,284.330444 1146.977905,276.520996 
	C1139.838867,277.079315 1133.963989,277.806488 1128.074829,277.950073 
	C1108.993896,278.415222 1089.908447,278.726135 1070.823364,278.976501 
	C1059.958252,279.119080 1049.090210,279.027954 1038.641235,279.041534 
	C1035.178833,293.547668 1032.073242,306.558655 1028.908813,319.815887 
	C1030.488892,319.890869 1031.637939,319.945374 1033.723877,319.999939 
M1529.000000,328.445312 
	C1529.372803,324.962158 1529.745605,321.479004 1530.179932,317.419922 
	C1542.110229,317.419922 1553.347290,317.419922 1564.643311,317.419922 
	C1570.394043,303.797974 1575.909424,290.733948 1581.907349,276.526642 
	C1574.829956,277.080139 1568.959717,277.806824 1563.075439,277.950195 
	C1543.993286,278.415253 1524.906860,278.726349 1505.820435,278.976624 
	C1494.955200,279.119141 1484.086914,279.027649 1473.620972,279.041016 
	C1470.138794,293.540527 1467.015503,306.545746 1463.904297,319.500122 
	C1477.859253,319.500122 1491.358643,319.500122 1505.921753,319.500122 
	C1504.182617,324.457214 1502.369873,328.929291 1501.037231,333.540131 
	C1494.439209,356.370941 1487.950684,379.233582 1481.469238,402.097870 
	C1480.410645,405.832428 1481.873535,406.503448 1485.346069,405.335907 
	C1496.687500,401.522705 1508.045044,397.737946 1519.511597,394.329468 
	C1522.420288,393.464813 1523.001953,392.178253 1523.063477,389.523743 
	C1523.170166,384.928894 1523.554321,380.330963 1524.029785,375.755890 
	C1525.637451,360.290283 1527.336182,344.834137 1529.000000,328.445312 
M1363.739258,120.008423 
	C1361.979248,120.338860 1360.223999,120.928848 1358.458618,120.960312 
	C1336.374268,121.353905 1314.288940,121.704201 1292.202759,121.981575 
	C1283.302124,122.093361 1274.398682,122.000000 1265.280029,122.000000 
	C1261.889648,136.278015 1258.777100,149.386078 1255.600220,162.765213 
	C1257.100098,162.889359 1257.750488,163.005539 1258.397339,162.987457 
	C1269.820557,162.668137 1281.243774,162.351273 1292.665649,161.989746 
	C1296.496948,161.868500 1297.667969,162.940704 1296.142456,166.997009 
	C1292.844849,175.764359 1289.743408,184.634995 1287.159302,193.634964 
	C1281.826782,212.205917 1276.885498,230.889160 1271.603760,250.181732 
	C1284.767822,245.931702 1296.949097,241.713638 1309.319702,238.154037 
	C1313.881226,236.841492 1314.837769,234.309860 1315.062012,230.232239 
	C1315.540161,221.538406 1316.249512,212.852859 1317.068970,204.183304 
	C1318.286133,191.304962 1319.842163,178.456512 1320.891113,165.565811 
	C1321.166992,162.175430 1321.974731,160.839661 1325.514526,160.936035 
	C1333.172363,161.144485 1340.841919,161.109741 1348.502319,160.958939 
	C1353.217407,160.866104 1357.742554,160.407532 1359.052246,154.331482 
	C1359.688599,151.379562 1361.422729,148.670181 1362.609375,145.829849 
	C1366.137451,137.385605 1369.640625,128.930893 1373.352905,120.000854 
	C1369.981201,120.000854 1367.326538,120.000854 1363.739258,120.008423 
M404.084930,190.391022 
	C399.122833,195.083847 394.160767,199.776672 388.664215,204.974976 
	C388.664215,197.879181 388.664215,191.465149 388.664215,185.355408 
	C375.545044,185.355408 362.807953,185.355408 350.337097,185.355408 
	C350.337097,225.768829 350.337097,265.826416 350.337097,305.665771 
	C363.412109,305.665771 376.148346,305.665771 389.000000,305.665771 
	C389.000000,301.010162 388.920349,296.686554 389.014832,292.366730 
	C389.307861,278.965698 388.499115,265.406586 390.302216,252.207169 
	C392.460938,236.404404 403.580139,226.130630 419.502411,224.040314 
	C425.289673,223.280563 431.137878,222.984695 436.950378,222.477859 
	C437.635620,209.651199 438.310120,197.025131 438.985565,184.380951 
	C426.466797,180.927917 415.447662,184.517380 404.084930,190.391022 
M491.377319,185.000000 
	C479.957397,185.000000 468.537476,185.000000 457.333282,185.000000 
	C457.333282,225.734497 457.333282,265.805267 457.333282,305.663177 
	C470.408813,305.663177 483.149292,305.663177 495.999908,305.663177 
	C495.999908,266.337524 495.962128,227.348450 496.073059,188.359818 
	C496.081757,185.302383 494.957489,184.606827 491.377319,185.000000 
M620.034424,362.858948 
	C619.022949,367.419830 617.209961,371.968109 617.138184,376.543732 
	C616.819580,396.860413 616.689697,417.191620 617.129211,437.503784 
	C617.353699,447.882477 621.661926,456.586304 630.869690,462.506470 
	C638.236267,467.242767 646.298340,466.980835 654.481628,467.039764 
	C672.371826,467.168640 684.702454,454.127228 684.937500,436.538513 
	C685.206848,416.387024 685.265747,396.223907 684.871094,376.076569 
	C684.710083,367.859314 682.036865,360.115387 675.705566,354.221344 
	C668.117371,347.157227 658.780945,345.639526 648.920776,346.014679 
	C636.654602,346.481262 626.413025,350.632111 620.034424,362.858948 
M590.366943,450.000000 
	C577.437805,450.000000 564.508667,450.000000 550.878723,450.000000 
	C559.687561,437.964874 568.010254,426.425598 576.515930,415.022827 
	C584.262451,404.637756 592.299927,394.560516 594.552185,381.138733 
	C596.024231,372.366455 592.465027,358.021271 583.245728,352.073303 
	C570.428955,343.804382 551.211426,343.348022 538.701843,353.951324 
	C531.231140,360.283508 528.065613,369.007233 526.851318,379.000000 
	C531.422180,379.000000 535.411194,378.798218 539.369507,379.059937 
	C542.924622,379.294952 544.515137,378.349396 545.158752,374.452576 
	C546.237671,367.919891 553.039734,362.799622 560.371338,362.018555 
	C567.540100,361.254852 573.586182,364.709839 576.159485,371.762299 
	C579.138794,379.927460 575.909058,387.482361 571.442688,393.787292 
	C560.545349,409.170502 549.035706,424.134521 537.394409,438.970581 
	C531.112244,446.976837 525.055237,454.704773 528.706177,465.673218 
	C550.688904,465.673218 572.749207,465.673218 594.999756,465.673218 
	C594.999756,461.364380 594.797607,457.367371 595.065186,453.402069 
	C595.270996,450.353088 593.966736,449.610931 590.366943,450.000000 
M707.088440,465.235779 
	C708.659668,465.490509 710.229736,465.957672 711.802307,465.966095 
	C723.463928,466.028656 735.126099,466.000000 746.788086,466.000000 
	C755.734070,466.000000 764.679993,466.000000 773.744873,466.000000 
	C773.744873,460.464966 773.744873,455.400421 773.744873,449.871155 
	C759.160034,449.871155 744.824768,449.871155 729.936035,449.871155 
	C738.798828,437.803070 747.222595,426.294647 755.688477,414.817352 
	C762.309814,405.840637 769.409119,397.194000 772.490601,386.100189 
	C775.533997,375.143188 774.080139,365.015198 766.722961,356.338531 
	C754.489624,341.911133 723.581543,341.475525 711.472046,361.227570 
	C708.285339,366.425415 706.095337,372.360962 706.075317,379.000000 
	C710.672119,379.000000 714.670044,378.820160 718.643433,379.055267 
	C721.998474,379.253754 723.487854,378.254120 724.124023,374.675934 
	C725.335754,367.860657 732.376343,362.454010 739.644836,362.005554 
	C746.964661,361.553833 753.136963,365.095093 755.326477,371.962067 
	C757.919983,380.096222 754.829102,387.632446 750.277771,394.000122 
	C740.162659,408.151917 729.261475,421.739075 718.871704,435.698547 
	C712.553528,444.187469 704.093994,451.908905 707.088440,465.235779 
M848.471191,466.000000 
	C850.901428,466.000000 853.331726,466.000000 856.186523,466.000000 
	C856.186523,459.664734 856.186523,453.921356 856.186523,447.763245 
	C859.359009,447.763245 862.095459,447.763245 864.655640,447.763245 
	C864.655640,442.251587 864.655640,437.178619 864.655640,431.875946 
	C861.692261,431.875946 859.073792,431.875946 855.850281,431.875946 
	C855.850281,419.782623 855.850281,407.925568 855.850281,396.000000 
	C851.576660,396.000000 847.890381,396.263062 844.258423,395.931458 
	C839.997070,395.542389 838.805115,397.180206 838.913696,401.318542 
	C839.178589,411.416534 839.000000,421.526184 839.000000,431.755768 
	C828.192200,431.755768 817.861694,431.755768 807.267700,431.755768 
	C820.129456,403.538605 832.853943,375.622681 845.900513,347.000000 
	C841.256165,347.000000 837.904907,347.298798 834.629211,346.928497 
	C829.957275,346.400391 827.628845,348.300446 825.694824,352.555115 
	C814.869385,376.369293 803.806519,400.077026 792.639648,423.733765 
	C789.015747,431.410919 786.429382,439.101440 788.640808,448.115051 
	C805.253906,448.115051 821.980469,448.115051 839.140503,448.115051 
	C839.140503,454.276276 839.140503,460.016357 839.140503,466.000000 
	C842.220398,466.000000 844.860229,466.000000 848.471191,466.000000 
M171.000000,40.400223 
	C171.000488,42.232384 170.636032,44.169880 171.124191,45.861290 
	C171.475098,47.077076 172.949844,48.847946 173.947647,48.864120 
	C186.541077,49.068226 199.138931,48.998219 211.743774,48.998219 
	C211.743774,35.076881 211.743774,21.677433 211.743774,8.000524 
	C199.194290,8.000524 186.898743,8.052670 174.604233,7.962575 
	C171.659454,7.940996 170.937332,9.291437 170.964279,11.944217 
	C171.057358,21.104033 171.000031,30.265377 171.000000,40.400223 
M466.904205,129.020798 
	C463.274963,132.337952 458.157928,134.979324 456.288239,139.095673 
	C450.023315,152.888611 455.883881,167.519409 471.399170,170.643173 
	C486.618256,173.707306 499.927460,163.113892 498.786957,147.975861 
	C497.660400,133.023102 482.904663,123.297066 466.904205,129.020798 
z"/>
<path fill="#000000" opacity="1.000000" stroke="none" 
	d="
M213.000000,222.000000 
	C213.000000,234.997513 213.202957,247.499115 212.951813,259.991577 
	C212.586914,278.142151 208.148148,295.066467 197.455704,310.129944 
	C184.900513,327.817657 168.224915,339.237518 147.072845,343.939972 
	C141.383636,345.204742 135.532104,345.739471 129.323242,346.674377 
	C129.323242,332.488556 129.323242,319.078064 129.323242,305.224884 
	C138.036682,305.207886 146.094376,302.448547 153.345886,297.238647 
	C163.152435,290.193054 169.691757,281.141815 170.976166,268.860504 
	C171.470505,264.133606 171.950882,259.375946 171.956726,254.631744 
	C172.024460,199.649704 172.000000,144.667542 172.000000,89.000000 
	C173.847366,89.000000 175.597092,89.000000 177.346817,89.000000 
	C203.508286,89.000000 229.670547,88.876663 255.830948,89.043945 
	C272.880127,89.152962 288.068848,95.187027 301.602264,105.204720 
	C318.278351,117.548637 329.092072,134.121613 333.563660,154.293701 
	C339.076874,179.164688 333.856140,202.161209 318.751373,222.660599 
	C306.209839,239.681274 289.069397,249.947311 268.627502,254.620087 
	C263.106995,255.882004 257.292480,255.857849 251.001587,256.484985 
	C251.001587,243.173431 250.919769,230.570862 251.156204,217.974289 
	C251.175217,216.961960 253.375595,215.140259 254.577408,215.127594 
	C273.564056,214.927261 289.927734,199.328720 293.775879,182.202209 
	C299.116028,158.435379 284.442352,135.782196 259.980408,130.033859 
	C259.505249,129.922195 258.983826,130.001404 258.484009,130.001373 
	C243.510330,130.000320 228.536652,130.000504 213.000000,130.000504 
	C213.000000,160.650604 213.000000,191.075302 213.000000,222.000000 
z"/>
<path fill="#000000" opacity="1.000000" stroke="none" 
	d="
M728.000000,298.931396 
	C728.000000,301.407898 728.000000,303.392517 728.000000,305.686951 
	C715.102844,305.686951 702.367188,305.686951 689.227539,305.686951 
	C689.158142,304.433228 689.011169,303.004272 689.010193,301.575226 
	C688.995544,279.752289 689.103638,257.928650 688.954834,236.106720 
	C688.884033,225.719833 683.084351,219.548187 674.751648,217.069199 
	C664.447144,214.003555 654.698792,218.864471 651.218689,226.037949 
	C648.487122,231.668732 646.416382,238.189804 646.229736,244.381012 
	C645.618042,264.678375 646.000000,285.005707 646.000000,305.660645 
	C633.158325,305.660645 620.421387,305.660645 607.000000,305.660645 
	C607.000000,304.315521 607.000000,302.733124 607.000000,301.150696 
	C607.000000,279.827515 606.925964,258.503967 607.032227,237.181335 
	C607.083069,226.968872 598.896851,218.370041 591.378601,216.866440 
	C577.108643,214.012558 566.693420,223.418533 565.152954,235.131149 
	C564.039368,243.597839 564.135620,252.247574 564.043945,260.819427 
	C563.885437,275.640747 564.000000,290.464996 564.000000,305.643921 
	C551.192749,305.643921 538.455139,305.643921 525.358154,305.643921 
	C525.358154,265.748260 525.358154,225.571960 525.358154,185.197296 
	C538.138855,185.197296 550.878845,185.197296 563.994751,185.197296 
	C563.994751,188.420563 563.994751,191.479111 563.994751,194.862854 
	C585.677124,174.535919 621.901550,176.831757 638.880066,201.080811 
	C650.275024,186.986862 665.408203,180.570938 683.116577,181.131317 
	C705.339355,181.834549 723.439148,197.212311 726.923950,219.762634 
	C727.772827,225.255753 727.923218,230.895004 727.954224,236.469513 
	C728.069153,257.125641 728.000000,277.782806 728.000000,298.931396 
z"/>
<path fill="#000000" opacity="1.000000" stroke="none" 
	d="
M46.000000,144.006317 
	C46.000000,184.496063 45.974594,224.487442 46.011322,264.478760 
	C46.028255,282.914032 59.618031,299.184021 77.643959,303.986084 
	C79.193344,304.398804 80.767204,304.831604 82.354561,304.970276 
	C88.996414,305.550354 88.999947,305.510559 88.999977,312.396149 
	C89.000031,323.380890 89.000000,334.365601 89.000000,345.709656 
	C78.273811,347.007538 68.243553,344.202423 58.590477,340.695679 
	C46.919174,336.455750 36.580822,329.589874 28.088734,320.467163 
	C16.299845,307.802795 8.316322,293.082947 6.019844,275.672913 
	C5.528947,271.951324 5.046876,268.191254 5.042789,264.448364 
	C4.981095,207.960663 5.000000,151.472870 5.000000,94.985092 
	C5.000000,93.175858 5.000000,91.366623 5.000000,89.279709 
	C46.298374,89.279709 87.364136,89.279709 128.715256,89.279709 
	C128.715256,102.623184 128.715256,116.027214 128.715256,129.827972 
	C101.375366,129.827972 73.971992,129.827972 46.000000,129.827972 
	C46.000000,134.637543 46.000000,139.072739 46.000000,144.006317 
z"/>
<path fill="#000000" opacity="1.000000" stroke="none" 
	d="
M761.229126,202.356628 
	C772.686646,190.579315 786.027588,183.653763 802.249207,181.899811 
	C823.900024,179.558838 842.382385,185.336121 857.089905,201.660355 
	C866.380493,211.972321 870.740356,224.446259 871.998352,238.115616 
	C872.343140,241.862793 872.867310,245.607193 872.955872,249.361206 
	C873.112244,255.995300 872.998718,255.999573 866.595703,255.999741 
	C840.944580,256.000427 815.293457,256.000000 789.642334,256.000000 
	C787.978577,256.000000 786.314819,256.000000 784.367554,256.000000 
	C786.907166,266.892853 792.728882,275.370972 803.673096,277.587646 
	C814.551331,279.790985 825.599792,278.353119 832.887451,268.309967 
	C835.046753,265.334381 837.152222,264.439789 840.182129,265.081512 
	C850.080200,267.177856 859.938660,269.461426 870.001221,271.715271 
	C861.857056,291.296143 847.310791,303.433807 826.575867,307.939667 
	C807.213623,312.147308 788.911316,309.275879 772.394531,297.989746 
	C757.916992,288.097046 749.745300,274.178436 746.950806,256.869171 
	C744.109802,239.272293 747.126282,223.008469 757.004456,208.106857 
	C758.250305,206.227402 759.683105,204.471863 761.229126,202.356628 
M805.500366,231.000000 
	C814.924622,231.000000 824.348877,231.000000 833.869080,231.000000 
	C831.325256,220.144363 820.415222,213.018753 811.033569,212.883041 
	C799.848877,212.721252 788.064026,220.211792 785.517395,231.000000 
	C791.854919,231.000000 798.177856,231.000000 805.500366,231.000000 
z"/>
<path fill="#A11C3F" opacity="1.000000" stroke="none" 
	d="
M1081.023682,162.995575 
	C1071.537964,167.713867 1062.903931,172.849716 1058.567749,182.879517 
	C1054.593384,192.072235 1056.774780,208.143738 1072.456299,209.922638 
	C1085.977173,211.456406 1098.448242,209.302551 1107.626221,197.869690 
	C1108.012329,197.388672 1108.354980,196.872803 1108.763306,196.310440 
	C1096.626953,197.330368 1084.739624,198.329376 1072.206543,199.382645 
	C1074.610840,190.766571 1076.637451,182.711960 1079.259033,174.855942 
	C1079.719116,173.477097 1082.578125,172.504929 1084.494141,172.068909 
	C1098.230957,168.942734 1112.010498,166.003830 1126.316528,162.887833 
	C1133.162231,173.637512 1140.095459,184.524506 1147.141602,195.588943 
	C1140.008789,208.000168 1129.596924,217.456299 1119.269653,226.820419 
	C1111.062378,234.262222 1101.334473,239.364731 1090.422974,242.267029 
	C1062.217041,249.769501 1033.497314,234.552292 1028.850830,203.089600 
	C1025.951538,183.457214 1032.978638,167.705383 1045.156860,153.351135 
	C1059.308594,136.670975 1078.652710,129.459549 1098.938843,124.024330 
	C1102.064209,123.186951 1105.458130,123.101990 1108.393433,121.871239 
	C1111.774658,120.453575 1113.272217,122.376205 1114.773438,124.453140 
	C1120.191772,131.949615 1125.494995,139.529144 1131.199829,147.582901 
	C1113.940674,150.925430 1096.966187,154.735687 1081.023682,162.995575 
z"/>
<path fill="#A11C3F" opacity="1.000000" stroke="none" 
	d="
M1280.442139,400.976044 
	C1272.131592,398.932739 1264.597046,396.446075 1257.846191,391.520447 
	C1248.401611,384.629272 1243.592896,374.902802 1241.182373,364.228729 
	C1237.117920,346.230682 1241.227905,329.770691 1252.490112,314.886505 
	C1267.064209,295.625214 1287.685425,287.246582 1309.874512,280.812378 
	C1319.526367,278.013611 1326.374146,278.189087 1331.223267,288.429718 
	C1333.929443,294.144958 1338.600830,298.929779 1342.646362,304.490936 
	C1321.145874,308.445740 1300.992920,313.762085 1282.973755,325.050842 
	C1276.505737,329.102966 1271.366577,334.409882 1268.910767,341.995361 
	C1265.630493,352.126984 1270.558594,366.175262 1286.703247,367.205872 
	C1300.605347,368.093353 1311.566284,363.737396 1320.574097,353.092377 
	C1308.502075,354.148743 1296.532471,355.196136 1283.416748,356.343842 
	C1285.099121,350.650818 1287.273560,345.885651 1287.805542,340.943695 
	C1288.856567,331.181305 1294.746460,328.176178 1303.447144,326.873474 
	C1313.693848,325.339233 1323.808960,322.850525 1333.911499,320.478912 
	C1336.612183,319.844910 1337.853638,320.154846 1339.396851,322.655090 
	C1344.936523,331.631042 1351.019531,340.273102 1356.498901,349.283539 
	C1357.488159,350.910370 1357.507324,354.338165 1356.434937,355.821045 
	C1345.311279,371.201569 1332.386597,384.834991 1315.510620,394.002014 
	C1304.789062,399.825928 1293.060059,401.749908 1280.442139,400.976044 
z"/>
<path fill="#A11C3F" opacity="1.000000" stroke="none" 
	d="
M1863.254883,282.674988 
	C1875.222900,285.164948 1878.418823,297.271667 1876.599609,306.849060 
	C1874.105225,319.980774 1864.656250,327.759735 1854.143555,334.265137 
	C1845.207886,339.794647 1835.800415,344.561615 1826.454956,349.747406 
	C1844.983154,353.486450 1863.463257,357.215759 1882.523682,361.062225 
	C1876.641357,374.036957 1871.036865,386.398743 1865.142578,399.399506 
	C1846.115967,386.251343 1827.079468,373.096405 1807.806519,359.778046 
	C1803.687134,373.128387 1804.479736,387.443665 1798.582520,400.290588 
	C1787.866333,392.198364 1778.004028,384.750824 1767.611816,376.903198 
	C1771.340332,367.839569 1775.195190,358.621552 1778.931519,349.355774 
	C1787.339233,328.506531 1795.787231,307.672211 1803.963135,286.732025 
	C1805.317749,283.262604 1806.807861,281.589142 1810.713745,280.814209 
	C1823.491699,278.279022 1836.234009,278.338867 1849.035767,279.983002 
	C1853.695801,280.581512 1858.301392,281.602753 1863.254883,282.674988 
M1821.528931,310.973938 
	C1819.800537,316.890564 1818.072266,322.807190 1816.179688,329.286102 
	C1827.759888,326.306946 1836.922485,320.410309 1844.824829,312.505493 
	C1846.223511,311.106445 1846.593140,308.678589 1848.168213,305.037994 
	C1840.446289,305.037994 1834.206787,304.636963 1828.065552,305.239441 
	C1825.679565,305.473541 1821.099487,305.139862 1821.528931,310.973938 
z"/>
<path fill="#A11C3F" opacity="1.000000" stroke="none" 
	d="
M1192.002686,236.999649 
	C1187.108643,238.854950 1182.671021,240.858780 1178.058594,242.304504 
	C1176.781860,242.704681 1174.387085,241.933731 1173.520630,240.871704 
	C1165.886963,231.516083 1158.185059,222.182922 1151.242676,212.322617 
	C1149.712891,210.149857 1150.467407,205.739609 1151.283691,202.654251 
	C1154.621216,190.037415 1158.463989,177.555389 1161.979370,164.984192 
	C1165.637329,151.902802 1169.271606,138.810989 1172.599243,125.643600 
	C1173.412964,122.423210 1174.963867,121.929794 1177.804810,121.951202 
	C1191.963501,122.057861 1206.123413,122.000031 1220.282959,122.000069 
	C1231.360596,122.000099 1242.438354,122.000076 1254.038574,122.000076 
	C1251.007202,128.996475 1247.261353,136.301804 1244.704346,144.001892 
	C1242.921265,149.371567 1239.939087,149.983231 1234.964478,150.172928 
	C1222.339844,150.654419 1209.741455,151.931946 1197.154907,153.127350 
	C1196.033203,153.233887 1194.619629,154.889587 1194.146240,156.132294 
	C1193.409668,158.065948 1193.307129,160.255402 1193.038818,162.349609 
	C1192.662842,165.285599 1194.267944,166.153030 1196.917603,166.011154 
	C1206.742676,165.484970 1216.570190,165.006226 1227.307983,164.463623 
	C1225.749023,169.247787 1223.715210,173.932755 1222.734009,178.828659 
	C1220.775024,188.602783 1212.606079,185.533386 1206.735229,186.881973 
	C1202.618530,187.827606 1198.243042,187.615387 1193.996094,188.048569 
	C1193.110474,188.138916 1191.682251,188.628540 1191.521973,189.213272 
	C1190.130005,194.289276 1188.970703,199.429062 1187.527954,205.441971 
	C1206.910522,200.157578 1225.243164,195.159454 1244.040405,190.034622 
	C1243.248657,196.709244 1241.801880,203.164398 1241.869019,209.603745 
	C1241.987671,220.968399 1232.472656,220.939957 1225.791748,223.850800 
	C1214.837769,228.623459 1203.543823,232.615936 1192.002686,236.999649 
z"/>
<path fill="#A11C3F" opacity="1.000000" stroke="none" 
	d="
M1674.037842,352.130920 
	C1679.045654,333.113922 1684.017334,314.515015 1689.011353,295.922089 
	C1689.472290,294.206390 1690.078369,292.529907 1690.609253,290.832764 
	C1691.807861,287.001678 1691.893433,281.594421 1694.496704,279.762390 
	C1697.322266,277.773926 1702.489014,279.034698 1706.635498,279.015411 
	C1716.800171,278.968109 1726.967163,279.129272 1737.129395,278.963501 
	C1747.724976,278.790680 1758.315552,278.326630 1768.908936,278.006775 
	C1770.527832,277.957886 1772.149536,277.999969 1774.651733,277.999969 
	C1771.673950,284.879944 1768.427979,290.900787 1766.457031,297.313507 
	C1764.072510,305.071686 1759.962158,307.514221 1751.630981,307.327667 
	C1739.574707,307.057678 1727.468628,309.009918 1715.175903,310.031403 
	C1714.377319,314.389435 1713.631958,318.456970 1712.727417,323.392670 
	C1724.706787,322.625336 1736.003418,321.901733 1747.787476,321.146912 
	C1745.580811,327.303436 1743.640869,333.387024 1741.147583,339.234589 
	C1740.460571,340.845612 1738.243896,342.582825 1736.519409,342.836395 
	C1729.554932,343.860596 1722.519287,344.520844 1715.487305,344.910339 
	C1712.453247,345.078369 1711.193481,345.732788 1710.803345,349.057800 
	C1710.308350,353.278015 1708.772827,357.376190 1707.433105,362.492401 
	C1726.913940,357.152832 1745.241333,352.129364 1764.159668,346.944000 
	C1763.310059,354.083313 1761.833984,360.869202 1761.871582,367.646698 
	C1761.914673,375.451385 1756.435425,376.868896 1751.137085,378.943939 
	C1734.427002,385.488403 1717.667358,391.908936 1701.010864,398.586884 
	C1696.876709,400.244324 1694.557739,399.636383 1691.811157,395.787079 
	C1685.554688,387.018402 1678.474609,378.841187 1671.932373,370.268524 
	C1671.003052,369.050903 1670.705933,366.878723 1670.984497,365.301880 
	C1671.743774,361.007538 1672.968018,356.795410 1674.037842,352.130920 
z"/>
<path fill="#A11C3F" opacity="1.000000" stroke="none" 
	d="
M1410.729370,344.963989 
	C1402.734131,345.011475 1402.717407,345.007599 1401.040161,352.219971 
	C1400.320068,355.315674 1399.685425,358.431244 1398.837402,362.343018 
	C1417.852661,357.167145 1436.183228,352.177643 1455.336670,346.964172 
	C1454.145264,356.310211 1452.995972,365.324707 1451.782227,374.845642 
	C1439.249268,379.834259 1426.510986,384.924347 1413.756836,389.973785 
	C1406.088623,393.009644 1398.302246,395.770111 1390.755981,399.080719 
	C1387.426880,400.541290 1385.494141,399.522369 1383.612549,397.096863 
	C1376.713135,388.203705 1369.704834,379.390228 1363.039307,370.324921 
	C1361.932495,368.819519 1361.640747,366.024658 1362.139282,364.133179 
	C1368.857666,338.639282 1375.723511,313.183594 1382.689819,287.755981 
	C1385.101440,278.952972 1385.273560,279.000092 1394.499756,279.000061 
	C1404.831909,279.000031 1415.166016,279.129639 1425.495483,278.965027 
	C1436.758179,278.785553 1448.015015,278.250977 1459.277588,278.080139 
	C1461.182129,278.051239 1463.102783,279.076630 1465.077759,279.632324 
	C1461.432495,288.130371 1458.065918,295.849274 1454.819580,303.618408 
	C1453.711060,306.270966 1451.974976,306.955811 1449.116211,307.098969 
	C1434.854736,307.813080 1420.610107,308.861511 1406.369873,309.791656 
	C1405.509277,314.340515 1404.759644,318.303497 1403.814819,323.298187 
	C1415.705078,322.605865 1427.239746,321.934235 1439.063965,321.245758 
	C1436.668335,327.643250 1434.658813,333.977264 1431.832642,339.923157 
	C1431.060547,341.547638 1427.926758,342.466003 1425.717163,342.905212 
	C1420.927002,343.857269 1416.033936,344.290588 1410.729370,344.963989 
z"/>
<path fill="#A11C3F" opacity="1.000000" stroke="none" 
	d="
M1227.969727,353.706848 
	C1224.986450,361.617462 1222.999268,369.681427 1218.869995,376.435883 
	C1209.665283,391.492401 1196.059937,400.614044 1177.926025,400.879669 
	C1166.394775,401.048584 1157.091797,395.370514 1150.239868,386.412994 
	C1142.180054,375.876465 1138.920044,363.773834 1138.817017,350.341187 
	C1138.690918,333.882812 1141.580566,318.559967 1150.734497,304.687683 
	C1161.605713,288.213013 1175.863159,277.724945 1196.628418,280.108765 
	C1207.866089,281.398834 1214.528198,289.559906 1220.033691,298.484589 
	C1229.955322,314.567780 1230.395020,332.226685 1228.049805,350.270172 
	C1227.921875,351.254578 1228.007568,352.266754 1227.969727,353.706848 
M1174.374268,326.125824 
	C1173.513428,330.910187 1172.595215,335.685089 1171.804077,340.480927 
	C1170.364624,349.208344 1171.255615,357.277039 1178.216309,363.758301 
	C1183.312988,368.503784 1188.071289,368.400726 1191.691528,362.597015 
	C1200.827026,347.951752 1202.949341,332.059479 1198.689941,315.438354 
	C1197.144043,309.406494 1191.730713,307.393402 1186.295044,310.321747 
	C1180.207886,313.601074 1176.852661,319.060913 1174.374268,326.125824 
z"/>
<path fill="#A11C3F" opacity="1.000000" stroke="none" 
	d="
M1033.255371,319.999908 
	C1031.637939,319.945374 1030.488892,319.890869 1028.908813,319.815887 
	C1032.073242,306.558655 1035.178833,293.547668 1038.641235,279.041534 
	C1049.090210,279.027954 1059.958252,279.119080 1070.823364,278.976501 
	C1089.908447,278.726135 1108.993896,278.415222 1128.074829,277.950073 
	C1133.963989,277.806488 1139.838867,277.079315 1146.977905,276.520996 
	C1143.678467,284.330444 1140.884277,290.991608 1138.050537,297.635834 
	C1135.763184,302.998962 1132.986450,308.206146 1131.285522,313.746185 
	C1130.322388,316.883636 1128.741455,316.937317 1126.292603,317.035187 
	C1116.061401,317.444122 1105.835571,317.984650 1094.939697,318.509094 
	C1093.977905,328.924744 1093.072510,339.643433 1091.977417,350.342712 
	C1090.761963,362.218750 1088.482544,374.069672 1088.383057,385.945862 
	C1088.320068,393.477417 1084.410645,394.518494 1079.054321,396.115906 
	C1068.068970,399.392151 1057.215454,403.111145 1044.577026,407.209015 
	C1053.110229,377.692230 1061.352051,349.183258 1069.788818,319.999939 
	C1057.797363,319.999939 1045.760620,319.999939 1033.255371,319.999908 
z"/>
<path fill="#A11C3F" opacity="1.000000" stroke="none" 
	d="
M1529.000000,328.909851 
	C1527.336182,344.834137 1525.637451,360.290283 1524.029785,375.755890 
	C1523.554321,380.330963 1523.170166,384.928894 1523.063477,389.523743 
	C1523.001953,392.178253 1522.420288,393.464813 1519.511597,394.329468 
	C1508.045044,397.737946 1496.687500,401.522705 1485.346069,405.335907 
	C1481.873535,406.503448 1480.410645,405.832428 1481.469238,402.097870 
	C1487.950684,379.233582 1494.439209,356.370941 1501.037231,333.540131 
	C1502.369873,328.929291 1504.182617,324.457214 1505.921753,319.500122 
	C1491.358643,319.500122 1477.859253,319.500122 1463.904297,319.500122 
	C1467.015503,306.545746 1470.138794,293.540527 1473.620972,279.041016 
	C1484.086914,279.027649 1494.955200,279.119141 1505.820435,278.976624 
	C1524.906860,278.726349 1543.993286,278.415253 1563.075439,277.950195 
	C1568.959717,277.806824 1574.829956,277.080139 1581.907349,276.526642 
	C1575.909424,290.733948 1570.394043,303.797974 1564.643311,317.419922 
	C1553.347290,317.419922 1542.110229,317.419922 1530.179932,317.419922 
	C1529.745605,321.479004 1529.372803,324.962158 1529.000000,328.909851 
z"/>
<path fill="#A11C3F" opacity="1.000000" stroke="none" 
	d="
M1364.205566,120.004639 
	C1367.326538,120.000854 1369.981201,120.000854 1373.352905,120.000854 
	C1369.640625,128.930893 1366.137451,137.385605 1362.609375,145.829849 
	C1361.422729,148.670181 1359.688599,151.379562 1359.052246,154.331482 
	C1357.742554,160.407532 1353.217407,160.866104 1348.502319,160.958939 
	C1340.841919,161.109741 1333.172363,161.144485 1325.514526,160.936035 
	C1321.974731,160.839661 1321.166992,162.175430 1320.891113,165.565811 
	C1319.842163,178.456512 1318.286133,191.304962 1317.068970,204.183304 
	C1316.249512,212.852859 1315.540161,221.538406 1315.062012,230.232239 
	C1314.837769,234.309860 1313.881226,236.841492 1309.319702,238.154037 
	C1296.949097,241.713638 1284.767822,245.931702 1271.603760,250.181732 
	C1276.885498,230.889160 1281.826782,212.205917 1287.159302,193.634964 
	C1289.743408,184.634995 1292.844849,175.764359 1296.142456,166.997009 
	C1297.667969,162.940704 1296.496948,161.868500 1292.665649,161.989746 
	C1281.243774,162.351273 1269.820557,162.668137 1258.397339,162.987457 
	C1257.750488,163.005539 1257.100098,162.889359 1255.600220,162.765213 
	C1258.777100,149.386078 1261.889648,136.278015 1265.280029,122.000000 
	C1274.398682,122.000000 1283.302124,122.093361 1292.202759,121.981575 
	C1314.288940,121.704201 1336.374268,121.353905 1358.458618,120.960312 
	C1360.223999,120.928848 1361.979248,120.338860 1364.205566,120.004639 
z"/>
<path fill="#000000" opacity="1.000000" stroke="none" 
	d="
M404.416046,190.207336 
	C415.447662,184.517380 426.466797,180.927917 438.985565,184.380951 
	C438.310120,197.025131 437.635620,209.651199 436.950378,222.477859 
	C431.137878,222.984695 425.289673,223.280563 419.502411,224.040314 
	C403.580139,226.130630 392.460938,236.404404 390.302216,252.207169 
	C388.499115,265.406586 389.307861,278.965698 389.014832,292.366730 
	C388.920349,296.686554 389.000000,301.010162 389.000000,305.665771 
	C376.148346,305.665771 363.412109,305.665771 350.337097,305.665771 
	C350.337097,265.826416 350.337097,225.768829 350.337097,185.355408 
	C362.807953,185.355408 375.545044,185.355408 388.664215,185.355408 
	C388.664215,191.465149 388.664215,197.879181 388.664215,204.974976 
	C394.160767,199.776672 399.122833,195.083847 404.416046,190.207336 
z"/>
<path fill="#000000" opacity="1.000000" stroke="none" 
	d="
M491.862793,185.000000 
	C494.957489,184.606827 496.081757,185.302383 496.073059,188.359818 
	C495.962128,227.348450 495.999908,266.337524 495.999908,305.663177 
	C483.149292,305.663177 470.408813,305.663177 457.333282,305.663177 
	C457.333282,265.805267 457.333282,225.734497 457.333282,185.000000 
	C468.537476,185.000000 479.957397,185.000000 491.862793,185.000000 
z"/>
<path fill="#363636" opacity="1.000000" stroke="none" 
	d="
M620.192627,362.498627 
	C626.413025,350.632111 636.654602,346.481262 648.920776,346.014679 
	C658.780945,345.639526 668.117371,347.157227 675.705566,354.221344 
	C682.036865,360.115387 684.710083,367.859314 684.871094,376.076569 
	C685.265747,396.223907 685.206848,416.387024 684.937500,436.538513 
	C684.702454,454.127228 672.371826,467.168640 654.481628,467.039764 
	C646.298340,466.980835 638.236267,467.242767 630.869690,462.506470 
	C621.661926,456.586304 617.353699,447.882477 617.129211,437.503784 
	C616.689697,417.191620 616.819580,396.860413 617.138184,376.543732 
	C617.209961,371.968109 619.022949,367.419830 620.192627,362.498627 
M647.970093,362.035126 
	C639.402405,363.587250 634.184326,368.518311 634.074829,377.376953 
	C633.833801,396.872620 633.632324,416.385590 634.283936,435.862427 
	C634.429077,440.201660 637.081482,445.909271 640.476318,448.368439 
	C646.513733,452.741974 654.264343,452.474731 660.952515,448.879700 
	C666.483826,445.906525 667.958740,440.143463 667.978821,434.177856 
	C668.038208,416.512604 667.714661,398.840942 668.094238,381.183655 
	C668.375671,368.092255 661.881592,361.244171 647.970093,362.035126 
z"/>
<path fill="#363636" opacity="1.000000" stroke="none" 
	d="
M590.850708,450.000000 
	C593.966736,449.610931 595.270996,450.353088 595.065186,453.402069 
	C594.797607,457.367371 594.999756,461.364380 594.999756,465.673218 
	C572.749207,465.673218 550.688904,465.673218 528.706177,465.673218 
	C525.055237,454.704773 531.112244,446.976837 537.394409,438.970581 
	C549.035706,424.134521 560.545349,409.170502 571.442688,393.787292 
	C575.909058,387.482361 579.138794,379.927460 576.159485,371.762299 
	C573.586182,364.709839 567.540100,361.254852 560.371338,362.018555 
	C553.039734,362.799622 546.237671,367.919891 545.158752,374.452576 
	C544.515137,378.349396 542.924622,379.294952 539.369507,379.059937 
	C535.411194,378.798218 531.422180,379.000000 526.851318,379.000000 
	C528.065613,369.007233 531.231140,360.283508 538.701843,353.951324 
	C551.211426,343.348022 570.428955,343.804382 583.245728,352.073303 
	C592.465027,358.021271 596.024231,372.366455 594.552185,381.138733 
	C592.299927,394.560516 584.262451,404.637756 576.515930,415.022827 
	C568.010254,426.425598 559.687561,437.964874 550.878723,450.000000 
	C564.508667,450.000000 577.437805,450.000000 590.850708,450.000000 
z"/>
<path fill="#363636" opacity="1.000000" stroke="none" 
	d="
M707.048828,464.757751 
	C704.093994,451.908905 712.553528,444.187469 718.871704,435.698547 
	C729.261475,421.739075 740.162659,408.151917 750.277771,394.000122 
	C754.829102,387.632446 757.919983,380.096222 755.326477,371.962067 
	C753.136963,365.095093 746.964661,361.553833 739.644836,362.005554 
	C732.376343,362.454010 725.335754,367.860657 724.124023,374.675934 
	C723.487854,378.254120 721.998474,379.253754 718.643433,379.055267 
	C714.670044,378.820160 710.672119,379.000000 706.075317,379.000000 
	C706.095337,372.360962 708.285339,366.425415 711.472046,361.227570 
	C723.581543,341.475525 754.489624,341.911133 766.722961,356.338531 
	C774.080139,365.015198 775.533997,375.143188 772.490601,386.100189 
	C769.409119,397.194000 762.309814,405.840637 755.688477,414.817352 
	C747.222595,426.294647 738.798828,437.803070 729.936035,449.871155 
	C744.824768,449.871155 759.160034,449.871155 773.744873,449.871155 
	C773.744873,455.400421 773.744873,460.464966 773.744873,466.000000 
	C764.679993,466.000000 755.734070,466.000000 746.788086,466.000000 
	C735.126099,466.000000 723.463928,466.028656 711.802307,465.966095 
	C710.229736,465.957672 708.659668,465.490509 707.048828,464.757751 
z"/>
<path fill="#363636" opacity="1.000000" stroke="none" 
	d="
M847.985596,466.000000 
	C844.860229,466.000000 842.220398,466.000000 839.140503,466.000000 
	C839.140503,460.016357 839.140503,454.276276 839.140503,448.115051 
	C821.980469,448.115051 805.253906,448.115051 788.640808,448.115051 
	C786.429382,439.101440 789.015747,431.410919 792.639648,423.733765 
	C803.806519,400.077026 814.869385,376.369293 825.694824,352.555115 
	C827.628845,348.300446 829.957275,346.400391 834.629211,346.928497 
	C837.904907,347.298798 841.256165,347.000000 845.900513,347.000000 
	C832.853943,375.622681 820.129456,403.538605 807.267700,431.755768 
	C817.861694,431.755768 828.192200,431.755768 839.000000,431.755768 
	C839.000000,421.526184 839.178589,411.416534 838.913696,401.318542 
	C838.805115,397.180206 839.997070,395.542389 844.258423,395.931458 
	C847.890381,396.263062 851.576660,396.000000 855.850281,396.000000 
	C855.850281,407.925568 855.850281,419.782623 855.850281,431.875946 
	C859.073792,431.875946 861.692261,431.875946 864.655640,431.875946 
	C864.655640,437.178619 864.655640,442.251587 864.655640,447.763245 
	C862.095459,447.763245 859.359009,447.763245 856.186523,447.763245 
	C856.186523,453.921356 856.186523,459.664734 856.186523,466.000000 
	C853.331726,466.000000 850.901428,466.000000 847.985596,466.000000 
z"/>
<path fill="#A11C3F" opacity="1.000000" stroke="none" 
	d="
M1626.999512,348.833313 
	C1620.829468,349.562805 1614.657471,350.276825 1608.490112,351.028839 
	C1605.696533,351.369476 1604.893066,352.969421 1604.935059,355.760132 
	C1605.095825,366.419495 1605.082031,377.083649 1604.957886,387.743988 
	C1604.910767,391.794037 1604.389282,395.838562 1604.016357,400.779938 
	C1599.797974,399.139343 1596.342285,397.889282 1592.960693,396.463196 
	C1580.990356,391.414917 1580.998657,391.392120 1581.000366,378.214966 
	C1581.003784,350.394470 1581.008301,322.573944 1581.018188,294.753448 
	C1581.018311,294.425201 1581.093872,294.096924 1581.184814,293.358246 
	C1592.103882,288.513885 1603.208740,283.587128 1614.778198,278.454224 
	C1612.814331,293.379272 1610.973999,307.366302 1609.049072,321.995605 
	C1615.075928,321.183044 1620.982666,320.507416 1626.841187,319.540009 
	C1629.344116,319.126678 1631.746460,318.104736 1634.892212,317.170593 
	C1636.059937,316.987915 1636.529907,316.993958 1637.043091,317.379944 
	C1639.795166,331.620605 1628.027832,323.805176 1623.679688,326.706451 
	C1624.133545,328.828949 1624.758057,330.840424 1624.964478,332.893951 
	C1625.469849,337.919495 1626.943726,339.060242 1632.107910,338.219360 
	C1632.415161,338.712372 1632.676636,338.899445 1632.925293,339.369812 
	C1628.277832,341.083557 1624.622803,343.017975 1626.999512,348.833313 
z"/>
<path fill="#000000" opacity="1.000000" stroke="none" 
	d="
M171.000000,39.913181 
	C171.000031,30.265377 171.057358,21.104033 170.964279,11.944217 
	C170.937332,9.291437 171.659454,7.940996 174.604233,7.962575 
	C186.898743,8.052670 199.194290,8.000524 211.743774,8.000524 
	C211.743774,21.677433 211.743774,35.076881 211.743774,48.998219 
	C199.138931,48.998219 186.541077,49.068226 173.947647,48.864120 
	C172.949844,48.847946 171.475098,47.077076 171.124191,45.861290 
	C170.636032,44.169880 171.000488,42.232384 171.000000,39.913181 
z"/>
<path fill="#000000" opacity="1.000000" stroke="none" 
	d="
M467.313049,129.008453 
	C482.904663,123.297066 497.660400,133.023102 498.786957,147.975861 
	C499.927460,163.113892 486.618256,173.707306 471.399170,170.643173 
	C455.883881,167.519409 450.023315,152.888611 456.288239,139.095673 
	C458.157928,134.979324 463.274963,132.337952 467.313049,129.008453 
z"/>
<path fill="#A11C3F" opacity="1.000000" stroke="none" 
	d="
M1632.000000,338.000000 
	C1626.943726,339.060242 1625.469849,337.919495 1624.964478,332.893951 
	C1624.758057,330.840424 1624.133545,328.828949 1623.679688,326.706451 
	C1628.027832,323.805176 1639.795166,331.620605 1637.319458,317.185486 
	C1640.977173,312.517914 1640.817139,312.074432 1635.166626,309.999969 
	C1636.481445,300.180176 1637.796387,290.360382 1639.059692,280.926147 
	C1648.903198,283.527008 1658.659912,286.104950 1668.694092,288.756226 
	C1668.163452,291.411285 1667.675781,293.850922 1666.656006,296.698914 
	C1665.429565,297.944641 1664.792725,298.839691 1664.026611,299.605530 
	C1662.946777,300.684814 1661.771362,301.668427 1660.636841,302.692993 
	C1660.509766,301.172302 1660.515503,299.624908 1660.216797,298.138672 
	C1659.935547,296.738831 1659.636841,294.489227 1658.813354,294.215576 
	C1656.568970,293.469818 1654.043335,293.570770 1651.774902,293.350403 
	C1651.393799,296.480194 1651.041382,299.373138 1650.672852,302.399567 
	C1652.155518,303.000793 1653.942261,303.725403 1655.853760,304.500580 
	C1653.761841,310.228455 1655.962891,314.023468 1660.255127,317.244934 
	C1661.625732,318.273621 1662.368042,320.139496 1663.397827,321.622314 
	C1663.269897,321.925964 1663.141968,322.229645 1662.565674,322.760620 
	C1659.522705,321.726685 1652.810425,324.893341 1656.931519,316.535187 
	C1653.286133,318.765625 1650.643066,320.382782 1647.995605,321.637085 
	C1647.371582,320.295380 1646.751831,319.316528 1646.132080,318.337708 
	C1645.421387,319.225159 1644.710693,320.112579 1643.874756,321.294952 
	C1643.499634,322.393250 1643.249878,323.196625 1642.659668,324.034119 
	C1641.546265,325.045471 1640.773071,326.022736 1639.618530,327.005737 
	C1636.430542,328.200378 1632.415283,334.297180 1632.000000,338.000000 
z"/>
<path fill="#A11C3F" opacity="1.000000" stroke="none" 
	d="
M1653.113525,386.043243 
	C1647.653687,388.689697 1642.237305,391.431213 1636.718750,393.948761 
	C1633.118286,395.591248 1629.369507,396.908508 1625.163818,398.579407 
	C1626.499756,383.094604 1627.760376,368.484222 1629.432983,353.390259 
	C1632.207275,352.477875 1632.387939,347.679993 1636.098999,349.852112 
	C1637.904175,350.908661 1639.858154,351.710938 1641.817993,352.663879 
	C1641.856934,351.880798 1641.928467,350.440399 1642.348877,348.997437 
	C1643.798584,348.329895 1644.899292,347.664917 1646.367432,347.073120 
	C1647.823364,349.097565 1648.911743,351.048767 1650.250000,353.000000 
	C1650.500000,353.000000 1651.000000,353.000000 1651.052979,353.344604 
	C1652.070557,354.126099 1653.035278,354.563049 1653.964722,355.352478 
	C1653.953003,357.470001 1653.976440,359.234985 1653.800537,361.246796 
	C1652.503174,360.539124 1651.424561,359.560883 1650.301880,358.636414 
	C1648.987915,357.554657 1647.635620,356.519745 1646.299927,355.464478 
	C1645.735229,357.624786 1644.857422,359.760773 1644.687256,361.951721 
	C1644.486328,364.537811 1644.897461,367.171417 1645.090454,370.630707 
	C1642.314209,369.421661 1641.030151,368.862427 1638.991821,367.974701 
	C1639.221924,370.348297 1638.933716,372.303101 1639.678467,373.712067 
	C1640.468018,375.206085 1643.412598,376.206390 1643.387817,377.379486 
	C1643.240356,384.363922 1647.281250,386.079102 1653.113525,386.043243 
z"/>
<path fill="#A11C3F" opacity="1.000000" stroke="none" 
	d="
M1653.465698,385.824585 
	C1647.281250,386.079102 1643.240356,384.363922 1643.387817,377.379486 
	C1643.412598,376.206390 1640.468018,375.206085 1639.678467,373.712067 
	C1638.933716,372.303101 1639.221924,370.348297 1638.991821,367.974701 
	C1641.030151,368.862427 1642.314209,369.421661 1645.090454,370.630707 
	C1644.897461,367.171417 1644.486328,364.537811 1644.687256,361.951721 
	C1644.857422,359.760773 1645.735229,357.624786 1646.299927,355.464478 
	C1647.635620,356.519745 1648.987915,357.554657 1650.301880,358.636414 
	C1651.424561,359.560883 1652.503174,360.539124 1654.154785,361.246796 
	C1655.416626,361.000000 1656.125000,361.000000 1656.833252,361.000000 
	C1656.092163,366.940155 1655.346558,372.879730 1654.612793,378.820831 
	C1654.333496,381.080750 1654.082031,383.344116 1653.465698,385.824585 
M1646.182983,375.827118 
	C1646.816895,377.154816 1647.450806,378.482483 1648.084717,379.810242 
	C1649.299561,378.673828 1651.389404,377.627777 1651.518311,376.379150 
	C1651.699219,374.627869 1650.421265,372.725983 1649.767334,370.888519 
	C1649.224121,370.985687 1648.681030,371.082825 1648.137817,371.179993 
	C1647.577637,372.491638 1647.017334,373.803284 1646.182983,375.827118 
M1649.037354,368.168762 
	C1649.536743,368.348541 1650.036011,368.528290 1650.535400,368.708069 
	C1650.469604,367.978424 1650.403809,367.248779 1650.338013,366.519104 
	C1649.914062,366.860901 1649.490234,367.202698 1649.037354,368.168762 
z"/>
<path fill="#A11C3F" opacity="1.000000" stroke="none" 
	d="
M1663.659424,321.290771 
	C1662.368042,320.139496 1661.625732,318.273621 1660.255127,317.244934 
	C1655.962891,314.023468 1653.761841,310.228455 1655.853760,304.500580 
	C1653.942261,303.725403 1652.155518,303.000793 1650.672852,302.399567 
	C1651.041382,299.373138 1651.393799,296.480194 1651.774902,293.350403 
	C1654.043335,293.570770 1656.568970,293.469818 1658.813354,294.215576 
	C1659.636841,294.489227 1659.935547,296.738831 1660.216797,298.138672 
	C1660.515503,299.624908 1660.509766,301.172302 1660.636841,302.692993 
	C1661.771362,301.668427 1662.946777,300.684814 1664.026611,299.605530 
	C1664.792725,298.839691 1665.429565,297.944641 1666.478760,297.053711 
	C1666.114380,303.237396 1665.405762,309.475922 1664.669067,315.711151 
	C1664.461792,317.465515 1664.172607,319.210144 1663.659424,321.290771 
z"/>
<path fill="#A11C3F" opacity="1.000000" stroke="none" 
	d="
M1662.113281,328.043579 
	C1661.735352,331.084473 1661.357422,334.125366 1660.554932,337.590881 
	C1659.086914,339.343658 1658.043457,340.671814 1656.737305,342.205200 
	C1656.316284,343.273651 1656.158203,344.136841 1655.979492,345.297943 
	C1655.639282,346.063904 1655.319702,346.531982 1654.635742,346.995911 
	C1653.180908,345.994507 1652.090454,344.997253 1651.125244,343.705078 
	C1651.500366,342.606750 1651.750122,341.803375 1652.286865,340.731354 
	C1653.043823,337.571045 1653.699951,334.690247 1653.870239,331.780975 
	C1653.920776,330.915955 1652.712158,329.376984 1651.888184,329.230804 
	C1651.072876,329.086151 1649.834229,330.151001 1649.107910,330.973846 
	C1648.163086,332.044342 1647.540527,333.399475 1646.779053,334.632080 
	C1646.186035,333.088074 1645.593018,331.544037 1645.279297,329.751434 
	C1645.705688,328.001892 1645.852905,326.500946 1646.219360,324.892090 
	C1646.712402,324.584747 1646.899536,324.323364 1647.390137,324.006470 
	C1652.557983,325.356476 1657.335693,326.700012 1662.113281,328.043579 
z"/>
<path fill="#A11C3F" opacity="1.000000" stroke="none" 
	d="
M1642.000000,349.000000 
	C1641.928467,350.440399 1641.856934,351.880798 1641.817993,352.663879 
	C1639.858154,351.710938 1637.904175,350.908661 1636.098999,349.852112 
	C1632.387939,347.679993 1632.207275,352.477875 1629.505737,352.953369 
	C1628.702515,351.665833 1628.238525,350.331573 1627.386963,348.915283 
	C1624.622803,343.017975 1628.277832,341.083557 1633.258545,339.369812 
	C1634.111084,339.000000 1634.555542,339.000000 1635.034180,339.340332 
	C1636.045532,340.453766 1637.022827,341.226868 1638.140381,342.288422 
	C1639.520508,343.384613 1640.760254,344.192322 1642.000000,345.400024 
	C1642.000000,346.866669 1642.000000,347.933319 1642.000000,349.000000 
z"/>
<path fill="#A11C3F" opacity="1.000000" stroke="none" 
	d="
M1662.450562,327.849487 
	C1657.335693,326.700012 1652.557983,325.356476 1647.497070,323.747375 
	C1647.475708,322.987885 1647.737915,322.493927 1648.000000,321.999969 
	C1650.643066,320.382782 1653.286133,318.765625 1656.931519,316.535187 
	C1652.810425,324.893341 1659.522705,321.726685 1662.475342,322.993744 
	C1662.818237,324.551514 1662.803101,326.103424 1662.450562,327.849487 
z"/>
<path fill="#A11C3F" opacity="1.000000" stroke="none" 
	d="
M1651.000000,344.000031 
	C1652.090454,344.997253 1653.180908,345.994507 1654.639648,347.340088 
	C1655.671753,348.792297 1656.335938,349.896149 1656.882690,351.280884 
	C1657.121460,352.701080 1657.477539,353.840424 1657.833618,354.979767 
	C1657.880371,355.794922 1657.927124,356.610046 1657.709961,357.503052 
	C1657.297241,357.387299 1657.148560,357.193634 1656.892090,356.780640 
	C1656.584839,356.287628 1656.323364,356.100555 1655.833252,355.754333 
	C1655.110962,355.339142 1654.555420,355.169556 1654.000000,355.000000 
	C1653.035278,354.563049 1652.070557,354.126099 1651.396729,353.307129 
	C1652.315796,352.314423 1652.943726,351.703766 1653.571655,351.093109 
	C1652.946411,350.759918 1651.852173,350.050049 1651.769653,350.152863 
	C1651.074829,351.017609 1650.565186,352.031158 1650.000000,353.000000 
	C1648.911743,351.048767 1647.823364,349.097565 1646.346924,346.775269 
	C1645.639282,345.936157 1645.319580,345.468079 1645.000000,344.750000 
	C1645.000000,344.500000 1645.000000,344.000000 1645.375000,344.000000 
	C1646.500000,344.000000 1647.250000,344.000000 1648.164307,344.235840 
	C1649.219116,344.314453 1650.109619,344.157227 1651.000000,344.000031 
z"/>
<path fill="#A11C3F" opacity="1.000000" stroke="none" 
	d="
M1657.000000,351.000000 
	C1656.335938,349.896149 1655.671753,348.792297 1655.003906,347.344238 
	C1655.319702,346.531982 1655.639282,346.063904 1656.304199,345.253784 
	C1656.766357,343.941132 1656.883179,342.970551 1657.000000,342.000000 
	C1658.043457,340.671814 1659.086914,339.343658 1660.481934,338.007507 
	C1660.215332,342.054047 1659.597168,346.108551 1658.600708,350.581543 
	C1657.814941,351.000000 1657.407471,351.000000 1657.000000,351.000000 
z"/>
<path fill="#A11C3F" opacity="1.000000" stroke="none" 
	d="
M1635.093872,310.430176 
	C1640.817139,312.074432 1640.977173,312.517914 1637.276367,316.805542 
	C1636.529907,316.993958 1636.059937,316.987915 1635.237427,316.969910 
	C1634.930420,314.925446 1634.975830,312.892914 1635.093872,310.430176 
z"/>
<path fill="#A11C3F" opacity="1.000000" stroke="none" 
	d="
M1653.964722,355.352478 
	C1654.555420,355.169556 1655.110962,355.339142 1655.941162,355.973694 
	C1656.415161,356.712372 1656.676636,356.899445 1657.000000,357.000000 
	C1657.148560,357.193634 1657.297241,357.387299 1657.625732,357.904114 
	C1657.566040,358.956299 1657.326294,359.685303 1656.959961,360.707153 
	C1656.125000,361.000000 1655.416626,361.000000 1654.354126,361.000000 
	C1653.976440,359.234985 1653.953003,357.470001 1653.964722,355.352478 
z"/>
<path fill="#A11C3F" opacity="1.000000" stroke="none" 
	d="
M1656.882690,351.280884 
	C1657.407471,351.000000 1657.814941,351.000000 1658.527954,350.999725 
	C1658.607056,352.109497 1658.380493,353.219543 1657.993896,354.654663 
	C1657.477539,353.840424 1657.121460,352.701080 1656.882690,351.280884 
z"/>
<path fill="#FFFFFF" opacity="1.000000" stroke="none" 
	d="
M805.000549,231.000000 
	C798.177856,231.000000 791.854919,231.000000 785.517395,231.000000 
	C788.064026,220.211792 799.848877,212.721252 811.033569,212.883041 
	C820.415222,213.018753 831.325256,220.144363 833.869080,231.000000 
	C824.348877,231.000000 814.924622,231.000000 805.000549,231.000000 
z"/>
<path fill="#FFFFFF" opacity="1.000000" stroke="none" 
	d="
M1821.733643,310.610321 
	C1821.099487,305.139862 1825.679565,305.473541 1828.065552,305.239441 
	C1834.206787,304.636963 1840.446289,305.037994 1848.168213,305.037994 
	C1846.593140,308.678589 1846.223511,311.106445 1844.824829,312.505493 
	C1836.922485,320.410309 1827.759888,326.306946 1816.179688,329.286102 
	C1818.072266,322.807190 1819.800537,316.890564 1821.733643,310.610321 
z"/>
<path fill="#FFFFFF" opacity="1.000000" stroke="none" 
	d="
M1174.643799,325.821045 
	C1176.852661,319.060913 1180.207886,313.601074 1186.295044,310.321747 
	C1191.730713,307.393402 1197.144043,309.406494 1198.689941,315.438354 
	C1202.949341,332.059479 1200.827026,347.951752 1191.691528,362.597015 
	C1188.071289,368.400726 1183.312988,368.503784 1178.216309,363.758301 
	C1171.255615,357.277039 1170.364624,349.208344 1171.804077,340.480927 
	C1172.595215,335.685089 1173.513428,330.910187 1174.643799,325.821045 
z"/>
<path fill="#FFFFFF" opacity="1.000000" stroke="none" 
	d="
M648.407471,362.019379 
	C661.881592,361.244171 668.375671,368.092255 668.094238,381.183655 
	C667.714661,398.840942 668.038208,416.512604 667.978821,434.177856 
	C667.958740,440.143463 666.483826,445.906525 660.952515,448.879700 
	C654.264343,452.474731 646.513733,452.741974 640.476318,448.368439 
	C637.081482,445.909271 634.429077,440.201660 634.283936,435.862427 
	C633.632324,416.385590 633.833801,396.872620 634.074829,377.376953 
	C634.184326,368.518311 639.402405,363.587250 648.407471,362.019379 
z"/>
<path fill="#A11C3F" opacity="1.000000" stroke="none" 
	d="
M1648.000000,344.000000 
	C1647.250000,344.000000 1646.500000,344.000000 1645.331787,343.675171 
	C1643.609131,342.233582 1642.304565,341.116791 1640.998413,339.604584 
	C1640.279175,338.170532 1639.561401,337.131897 1638.843750,336.093262 
	C1638.229126,337.062195 1637.614624,338.031097 1636.666748,339.000000 
	C1635.888916,339.000000 1635.444458,339.000000 1635.000000,339.000000 
	C1634.555542,339.000000 1634.111084,339.000000 1633.333252,339.000000 
	C1632.676636,338.899445 1632.415161,338.712372 1632.107910,338.219360 
	C1632.415283,334.297180 1636.430542,328.200378 1639.769165,327.306091 
	C1641.867554,328.400513 1643.433716,329.200256 1645.000000,330.000000 
	C1645.593018,331.544037 1646.186035,333.088074 1646.779053,334.632080 
	C1647.540527,333.399475 1648.163086,332.044342 1649.107910,330.973846 
	C1649.834229,330.151001 1651.072876,329.086151 1651.888184,329.230804 
	C1652.712158,329.376984 1653.920776,330.915955 1653.870239,331.780975 
	C1653.699951,334.690247 1653.043823,337.571045 1651.964844,340.774719 
	C1650.237549,342.057861 1649.118774,343.028931 1648.000000,344.000000 
z"/>
<path fill="#A11C3F" opacity="1.000000" stroke="none" 
	d="
M1645.279297,329.751404 
	C1643.433716,329.200256 1641.867554,328.400513 1640.150635,327.300385 
	C1640.773071,326.022736 1641.546265,325.045471 1642.864868,324.296967 
	C1644.273560,324.683777 1645.136841,324.841888 1646.000000,325.000000 
	C1645.852905,326.500946 1645.705688,328.001892 1645.279297,329.751404 
z"/>
<path fill="#A11C3F" opacity="1.000000" stroke="none" 
	d="
M1646.219360,324.892090 
	C1645.136841,324.841888 1644.273560,324.683777 1643.205322,324.262878 
	C1643.249878,323.196625 1643.499634,322.393250 1644.225342,321.297302 
	C1645.800659,321.336456 1646.900391,321.668243 1648.000000,322.000000 
	C1647.737915,322.493927 1647.475708,322.987885 1647.106812,323.740906 
	C1646.899536,324.323364 1646.712402,324.584747 1646.219360,324.892090 
z"/>
<path fill="#A11C3F" opacity="1.000000" stroke="none" 
	d="
M1647.995605,321.637115 
	C1646.900391,321.668243 1645.800659,321.336456 1644.350586,321.002380 
	C1644.710693,320.112579 1645.421387,319.225159 1646.132080,318.337708 
	C1646.751831,319.316528 1647.371582,320.295380 1647.995605,321.637115 
z"/>
<path fill="#A11C3F" opacity="1.000000" stroke="none" 
	d="
M1645.000000,345.000000 
	C1645.319580,345.468079 1645.639282,345.936157 1645.979492,346.702087 
	C1644.899292,347.664917 1643.798584,348.329895 1642.348877,348.997437 
	C1642.000000,347.933319 1642.000000,346.866669 1642.375000,345.399994 
	C1643.500000,345.000000 1644.250000,345.000000 1645.000000,345.000000 
z"/>
<path fill="#A11C3F" opacity="1.000000" stroke="none" 
	d="
M1650.250000,353.000000 
	C1650.565186,352.031158 1651.074829,351.017609 1651.769653,350.152863 
	C1651.852173,350.050049 1652.946411,350.759918 1653.571655,351.093109 
	C1652.943726,351.703766 1652.315796,352.314423 1651.343872,352.962524 
	C1651.000000,353.000000 1650.500000,353.000000 1650.250000,353.000000 
z"/>
<path fill="#A11C3F" opacity="1.000000" stroke="none" 
	d="
M1646.320068,375.471008 
	C1647.017334,373.803284 1647.577637,372.491638 1648.137817,371.179993 
	C1648.681030,371.082825 1649.224121,370.985687 1649.767334,370.888519 
	C1650.421265,372.725983 1651.699219,374.627869 1651.518311,376.379150 
	C1651.389404,377.627777 1649.299561,378.673828 1648.084717,379.810211 
	C1647.450806,378.482483 1646.816895,377.154816 1646.320068,375.471008 
z"/>
<path fill="#A11C3F" opacity="1.000000" stroke="none" 
	d="
M1649.051758,367.856628 
	C1649.490234,367.202698 1649.914062,366.860901 1650.338013,366.519104 
	C1650.403809,367.248779 1650.469604,367.978424 1650.535400,368.708069 
	C1650.036011,368.528290 1649.536743,368.348541 1649.051758,367.856628 
z"/>
<path fill="#A11C3F" opacity="1.000000" stroke="none" 
	d="
M1648.164307,344.235840 
	C1649.118774,343.028931 1650.237549,342.057861 1651.678101,341.043396 
	C1651.750122,341.803375 1651.500366,342.606750 1651.125244,343.705078 
	C1650.109619,344.157227 1649.219116,344.314453 1648.164307,344.235840 
z"/>
<path fill="#A11C3F" opacity="1.000000" stroke="none" 
	d="
M1656.737305,342.205231 
	C1656.883179,342.970551 1656.766357,343.941132 1656.324829,344.955872 
	C1656.158203,344.136841 1656.316284,343.273651 1656.737305,342.205231 
z"/>
<path fill="#A11C3F" opacity="1.000000" stroke="none" 
	d="
M1645.000000,344.750000 
	C1644.250000,345.000000 1643.500000,345.000000 1642.375000,345.000000 
	C1640.760254,344.192322 1639.520508,343.384613 1638.140381,341.955139 
	C1638.000000,340.888885 1638.000000,340.444458 1638.375000,340.000000 
	C1639.500000,340.000000 1640.250000,340.000000 1641.000000,340.000000 
	C1642.304565,341.116791 1643.609131,342.233582 1644.956787,343.675171 
	C1645.000000,344.000000 1645.000000,344.500000 1645.000000,344.750000 
z"/>
<path fill="#A11C3F" opacity="1.000000" stroke="none" 
	d="
M1638.000000,340.000000 
	C1638.000000,340.444458 1638.000000,340.888885 1638.000000,341.666626 
	C1637.022827,341.226868 1636.045532,340.453766 1635.034180,339.340332 
	C1635.444458,339.000000 1635.888916,339.000000 1636.885986,339.107910 
	C1637.712402,339.415253 1637.899536,339.676636 1638.000000,340.000000 
z"/>
<path fill="#A11C3F" opacity="1.000000" stroke="none" 
	d="
M1656.892090,356.780640 
	C1656.676636,356.899445 1656.415161,356.712372 1656.107910,356.219360 
	C1656.323364,356.100555 1656.584839,356.287628 1656.892090,356.780640 
z"/>
<path fill="#A11C3F" opacity="1.000000" stroke="none" 
	d="
M1638.375000,340.000000 
	C1637.899536,339.676636 1637.712402,339.415253 1637.219360,339.107910 
	C1637.614624,338.031097 1638.229126,337.062195 1638.843750,336.093262 
	C1639.561401,337.131897 1640.279175,338.170532 1640.998413,339.604584 
	C1640.250000,340.000000 1639.500000,340.000000 1638.375000,340.000000 
z"/>
</svg>