<?xml version="1.0" encoding="UTF-8"?>
<svg id="Layer_1" data-name="Layer 1" xmlns="http://www.w3.org/2000/svg" viewBox="0 0 506.1 136.52">
  <defs>
    <style>
      .cls-1 {
        fill: #a6a8ab;
      }
    </style>
  </defs>
  <g>
    <path d="M220.39,63.64h-22.5c.79,3.67,3.3,5.93,6.6,5.93,2.26,0,4.89-.55,6.54-3.55l8.68,1.77c-2.63,6.48-8.19,9.6-15.22,9.6-8.86,0-16.2-6.54-16.2-16.26s7.34-16.26,16.26-16.26,15.65,6.24,15.83,16.26v2.51Zm-22.31-5.99h12.66c-.92-3.3-3.36-4.83-6.17-4.83s-5.56,1.71-6.48,4.83"/>
    <path d="M110.17,45.61l-.43,9.78h-1.77c-6.85,0-10.58,3.55-10.58,11.49v9.6h-9.78v-30.69h9.78v5.87c2.2-3.67,5.56-6.3,10.58-6.3,.86,0,1.47,.06,2.2,.24"/>
    <path d="M125.39,36.74c0,3.12-2.38,5.44-5.69,5.44s-5.62-2.32-5.62-5.44,2.32-5.56,5.62-5.56,5.69,2.57,5.69,5.56m-10.58,9.05h9.78v30.69h-9.78v-30.69Z"/>
    <path d="M183.65,57.29v19.2h-9.72v-17.12c0-3.48-2.26-5.69-5.14-5.69-3.61,0-5.99,2.63-5.99,7.76v15.04h-9.78v-17.12c0-3.48-2.26-5.69-5.2-5.69-3.55,0-5.87,2.63-5.87,7.76v15.04h-9.78v-30.69h9.78v2.81c2.08-2.32,5.07-3.73,9.05-3.73,4.28,0,7.95,1.83,10.03,5.2,2.45-3.18,6.11-5.2,10.88-5.2,6.54,0,11.74,4.95,11.74,12.41"/>
    <rect x="42.36" y=".93" width="10.2" height="10.19"/>
    <path d="M31.48,31.62v-10.27H0v44.09c0,11.71,9.53,21.24,21.24,21.24v-10.27c-6.05,0-10.97-4.92-10.97-10.96V31.62H31.48Z"/>
    <path d="M62.72,21.34h-20.28v44.09c0,6.04-4.92,10.96-10.97,10.96v10.27c11.67,0,21.16-9.46,21.23-21.11h0V31.62h10c6.05,0,10.97,4.92,10.97,10.97s-4.92,10.96-10.97,10.96v10.27c11.71,0,21.24-9.53,21.24-21.24s-9.52-21.24-21.24-21.24"/>
  </g>
  <g>
    <path d="M330.16,135.51c-24.18-6.38-48.17-12.71-72.16-19.04,.02-.07,.03-.13,.05-.2h76.25c-1.38,6.42-2.73,12.73-4.13,19.25Z"/>
    <path d="M376.49,42.12c-1.9-11.46-3.76-22.74-5.63-34.01,.09-.06,.18-.13,.26-.19,.2,.14,.52,.25,.58,.44,.29,.91,.52,1.84,.77,2.77,.39,1.45,.81,2.9,1.17,4.36,.15,.62,.45,.97,1.22,.92-.06-.55-.13-1.11-.2-1.79,1.62,.1,3.15,.2,4.75,.31-.14,.76-.27,1.38-.38,2.01-.12,.66-.12,.66,.56,1.23-.53,2.23-1.07,4.48-1.6,6.74-.24,1.02-.2,1.12,.45,2.23,.9-3.71,1.77-7.33,2.64-10.93,2.67-.75,5.29,.75,6.31,3.05,.63,1.42,1.34,2.8,2.06,4.17,.3,.57,.37,1.07,.05,1.66-.34,.63-.58,1.3-.87,1.95,.08,.05,.15,.1,.23,.14,.86-.85,1.71-1.69,2.7-2.67,2.94,5.71,5.81,11.28,8.8,17.1-8.07,.17-15.9,.33-23.88,.5Z"/>
    <path d="M320.09,135.96c-17.85,.19-35.69,.38-53.54,.57-.02-.07-.04-.14-.07-.21,.23-.15,.45-.33,.7-.44,6.31-2.86,12.62-5.71,18.92-8.58,.57-.26,1.1-.36,1.71-.19,10.61,2.81,21.22,5.62,31.83,8.43,.16,.04,.31,.09,.47,.13-.01,.1-.02,.19-.03,.29Z"/>
    <path d="M451.77,28.21c2.09,2.29,4.18,4.58,6.32,6.93-1.13,1.81-2.25,3.58-3.36,5.36-.37,.6-.89,.51-1.53,.32-1.38-4.4-2.78-8.84-4.23-13.46,.77,.13,1.41,.24,2.25,.38-.79-.88-1.42-1.67-2.13-2.36-.92-.88-1.52-1.91-1.79-3.16-.12-.58-.34-1.13-.56-1.81,.57-.61,1.15-1.24,1.74-1.86,.73-.76,1.46-1.51,2.19-2.27,1.1-1.14,1.96-1.34,3.21-.42,1.39,1.03,2.68,2.2,3.95,3.39,.27,.26,.36,.82,.37,1.24,.05,2.1,.06,4.2,.07,6.31,0,.54,0,1.08,0,1.66,1.32,.34,2.5,.65,3.81,.99-.02,1.81,.26,3.58-.18,5.62-.5-.49-.82-.79-1.12-1.12-1.3-1.41-2.6-2.82-3.88-4.25-.41-.46-.85-.77-1.48-.9-1.2-.24-2.38-.57-3.56-.86-.04,.09-.07,.17-.11,.26Z"/>
    <path d="M445.88,44.98c-1.41-1.08-2.7-2.01-3.93-3.01-.61-.5-1.24-.69-2.01-.64-1.23,.07-2.46,.06-3.69,.11-.62,.02-1.14-.12-1.65-.51-3.46-2.68-6.94-5.35-10.42-8.01-.14-.11-.3-.19-.57-.36,1.77-1.84,3.4-3.54,5.08-5.29,2.75,.68,5.49,1.37,8.23,2.03,.58,.14,.76,.52,.92,1.04,.96,3.14,1.96,6.27,2.95,9.4,.15,.47,.31,.94,.49,1.45h5.65c1.05,1.7-.61,2.46-1.04,3.79Z"/>
    <path d="M394.46,26c1-.92,1.97-1.81,3.01-2.77,.22,.16,.56,.37,.88,.62,3.29,2.52,6.58,5.06,9.88,7.57,.62,.47,1.03,.99,1.08,1.79,.03,.5,.11,1.01,.28,1.47,.52,1.41,.21,2.5-.98,3.47-.91,.74-1.71,1.65-2.47,2.55-.56,.66-1.19,.91-2.02,.84-.5-.04-1,0-1.65,0-2.65-5.14-5.31-10.31-8.01-15.54Z"/>
    <path d="M458.04,89.2c-6.18-1.97-12.19-3.88-18.22-5.8,.61-.75,13.34-8.57,15.02-9.23,.15,.41,.32,.82,.45,1.24,.56,1.78,1.02,3.6,1.7,5.34,1.04,2.68,.84,5.45,1.05,8.44Z"/>
    <path d="M422.17,15.51c1.98,2.2,3.95,4.41,6.04,6.74-.58,.61-1.15,1.24-1.74,1.84-.44,.46-.96,.17-1.42,.07-3.1-.74-6.19-1.51-9.29-2.27-.75-.18-1.49-.37-2.29-.58-.44-2.04-.88-4.03-1.33-6.09-.83-.11-1.63-.22-2.47-.33-.1-.42-.25-.82-.25-1.21,0-.32,.09-.73,.29-.95,1.17-1.27,2.4-2.5,3.67-3.81,.35,.32,.62,.53,.85,.78,1.36,1.48,2.74,2.93,4.05,4.45,.63,.73,1.28,1.22,2.31,1.15,.53-.04,1.07,.16,1.6,.26,0,0-.04-.04-.04-.04Z"/>
    <path d="M393.95,19.54c-1.81-1.36-3.55-2.48-5.05-3.86-1.12-1.04-2.34-2.07-2.92-3.63-.44-1.19-1.17-2.27-1.7-3.42-.21-.46-.24-1-.39-1.63,5.64-.67,11.06-1.05,16.62-.26-.16,.38-.28,.7-.45,1.01-.94,1.72-1.91,3.42-2.81,5.16-.32,.63-1.04,1.17-.62,2.05,.03,.05-.06,.17-.1,.25-.83,1.4-1.67,2.8-2.59,4.36Z"/>
    <path d="M422.21,15.56c-.34-.47-.65-.97-1.03-1.4-1.58-1.76-3.19-3.49-4.78-5.23,.78-1.37,1.48-2.66,2.62-3.67,1.2-1.07,2.48-1.15,3.73-.12,1.53,1.25,2.6,2.76,3.18,4.7,.55,1.85,1.37,3.62,2.1,5.48,1.15,.07,2.28,.13,3.56,.21,.52,1.66,1.11,3.33,1.51,5.04,.1,.41-.44,.98-.75,1.61-.42-.39-.69-.61-.92-.86-1.54-1.68-3.1-3.35-4.61-5.05-.46-.52-.95-.8-1.65-.78-1,.03-1.99,0-2.99,.01,0,0,.04,.04,.04,.04Z"/>
    <path d="M466.52,62.85c-.99-3.17-1.89-6.02-2.82-9,1.53-.46,2.96-.89,4.54-1.37-.35-.33-.58-.57-.84-.78-1.4-1.1-2.74-2.29-4.22-3.26-1.74-1.14-2.7-2.77-3.4-4.61,.29-.98,.91-1.38,1.94-1.29,.9,.08,1.81,.02,2.66,.02,.11,.14,.22,.21,.21,.28-.06,1.89,.8,3.38,1.95,4.8,1.06,1.31,2.01,2.71,3.07,4.15-.35,.22-.67,.41-1.09,.67,.86,.67,1.7,1.29,2.5,1.95,.73,.59,.94,1.98,.35,2.69-1.53,1.86-3.11,3.69-4.86,5.76Z"/>
    <path d="M458.17,7.57c.2,.57,.16,1.01-.25,1.42-1.21,1.23-2.4,2.49-3.69,3.83-.61-.55-1.19-1.05-1.74-1.57-1.1-1.03-2.2-2.05-3.28-3.11-.45-.44-.94-.64-1.57-.66-1.46-.04-2.91-.15-4.37-.26-.34-.03-.75-.12-.99-.34-1.15-1.03-2.25-2.1-3.58-3.36,1.41-.14,2.55-.27,3.7-.36,2.18-.18,4.36-.32,6.54-.53,.75-.07,1.3,.07,1.74,.73,.43,.64,.99,1.2,1.42,1.84,.4,.58,.71,1.21,1.15,2,1.5,.11,3.21,.24,4.91,.37Z"/>
    <path d="M435.84,59.93c2.62-4.16,5.23-8.31,7.92-12.59,1.06,.8,2,1.5,2.92,2.23,.17,.13,.29,.36,.36,.56,.65,2.03,1.28,4.07,1.96,6.27-4.39,1.27-8.7,2.52-13.01,3.76l-.15-.24Z"/>
    <path d="M469.49,84.18c-.87-2.76-1.74-5.53-2.64-8.38,.71-.46,1.39-.9,2.16-1.41-.58-1.91-1.16-3.81-1.77-5.82,.71-.39,1.38-.75,2.18-1.19-.28-.93-.51-1.84-.84-2.72-.26-.69-.13-1.19,.35-1.74,1.44-1.64,2.84-3.32,4.39-5.15,.1,.53,.19,.85,.21,1.18,.12,2.23,.2,4.47,.35,6.7,.04,.66-.16,1.1-.76,1.26-1.6,.43-1.91,1.49-1.7,3,.15,1.07,.03,2.18,.03,3.39-.34,.22-.74,.54-1.18,.74-.77,.36-1,.9-.94,1.74,.18,2.55,.29,5.1,.42,7.66,.01,.23,0,.45,0,.68-.08,.02-.16,.04-.24,.06Z"/>
    <path d="M400.68,21.78c.74-.78,1.49-1.57,2.24-2.35,.51-.53,1.09-.99,1.51-1.58,.89-1.23,2.03-1.58,3.61-1.13,.24,1.24,.47,2.58,.78,3.9,.66,2.77,1.57,5.49,1.98,8.32,.04,.27,.07,.53,.11,.83-.9-.33-8.71-6.43-10.24-7.99Z"/>
    <path d="M428.06,4.13c1.42-.43,2.42-.06,3.49,.92,3.06,2.8,6.27,5.44,9.41,8.15,.96,.83,1.91,1.67,2.99,2.61-1.53,1.6-3.06,3.19-4.72,4.91-.51-1.58-.96-2.95-1.39-4.34-.15-.48-.22-.95-.86-1.1-.25-.06-.48-.49-.61-.79-.39-.93-.39-2.08-1.68-2.45-.23-.07-.36-.6-.47-.94-.39-1.16-.75-2.34-1.15-3.6-2.45,.06-4.87,.03-5.02-3.38Z"/>
    <path d="M431.53,41.6c-1.76,0-3.52,.04-5.27-.01-1.39-.04-2.77,.22-4.17-.32-.75-.29-1.7-.05-2.64-.05-.39-2-.79-3.91-1.13-5.83-.05-.27,.05-.65,.22-.86,.55-.66,1.17-1.25,1.81-1.93,3.81,2.93,7.53,5.78,11.25,8.63-.02,.12-.04,.25-.07,.37Z"/>
    <path d="M413.46,23.54c3.67,.9,7.06,1.73,10.69,2.62-2.17,2.26-4.19,4.38-6.3,6.58-.94-.72-1.84-1.4-2.72-2.1-.17-.13-.33-.34-.37-.54-.43-2.08-.83-4.17-1.3-6.55Z"/>
    <path d="M482.63,29.55c.96,.22,1.87,.44,2.93,.68,.15,3.26,.3,6.47,.46,9.69-.84,.37-1.37,.11-1.87-.46-1.18-1.33-2.4-2.62-3.59-3.94-.77-.85-.83-1.34-.23-2.31,.73-1.2,1.5-2.38,2.3-3.65Z"/>
    <path d="M479.18,51.39c-.56,.16-.99,.28-1.51,.43-.31-.4-.63-.77-.92-1.16-1-1.35-1.95-2.75-3-4.06-.72-.9-1.13-1.83-.95-2.99,.04-.27,.03-.54,.05-1.01,1.48-.01,2.96-.07,4.44-.02,.62,.02,1.53,1.15,1.57,1.85,.13,2.27,.22,4.54,.33,6.97Z"/>
    <path d="M489.17,28.71c-1-.26-1.83-.47-2.77-.71v-9.69c.23,.13,.51,.24,.72,.42,1.33,1.12,2.64,2.25,3.95,3.38,.77,.67,1.04,1.81,.53,2.69-.74,1.3-1.58,2.55-2.43,3.91Z"/>
    <path d="M447.57,72.31c2.6-3.07,5.2-6.15,7.96-9.41,.55,1.73,1.02,3.24,1.55,4.89-3.14,1.61-6.23,3.18-9.32,4.76-.06-.08-.13-.17-.19-.25Z"/>
    <path d="M374.37,13.03c-.52-2.01-1-3.85-1.49-5.77,1.12-.33,2.1-.52,3.04,.39,.94,.91,1.97,1.75,3.01,2.56,.67,.52,.91,1.07,.55,1.86-.13,.28-.17,.6-.26,.96h-4.84Z"/>
    <path d="M404.24,7.59c.25,1.39,.54,2.82,.76,4.25,.15,1-.74,1.96-1.74,1.91-1.53-.08-3.05-.19-4.78-.3,.55-.92,1-1.68,1.46-2.45,.49-.82,1-1.63,1.49-2.45q.91-1.49,2.81-.97Z"/>
    <path d="M446.27,13.27c-.6,.56-1.07,.99-1.68,1.55-2.89-2.48-5.77-4.95-8.65-7.43l.07-.26c1.2,.05,2.41,.09,3.6,.18,.24,.02,.51,.2,.7,.38,1.94,1.8,3.86,3.62,5.95,5.59Z"/>
    <path d="M394.84,20.04c.86-1.6,1.67-3.12,2.54-4.73,1.64,.12,3.26,.24,5.1,.37-.34,.42-.54,.7-.77,.94-1.2,1.25-2.42,2.48-3.63,3.72-1.15,1.18-1.39,1.2-2.73,.17-.14-.11-.26-.24-.51-.47Z"/>
    <path d="M489.49,12.4c0-1.87-.06-3.64,.04-5.39,.02-.44,.55-.85,.9-1.34,2.29,1.86,3.28,4.24,3.99,6.98-1.6-.08-3.12-.16-4.93-.25Z"/>
    <path d="M411.64,9.16c-1.34,1.25-2.69,2.52-4.03,3.78,.09,.53,.16,.91,.24,1.34h-1.9c.56-.51,.94-.86,1.43-1.3-.37-1.96-.75-4-1.16-6.15,2.19-.19,4.14-.07,5.41,2.34Z"/>
    <path d="M434.64,22.05c1.82,1.51,2.97,3.17,3.15,5.56-2.26-.55-4.42-1.08-6.86-1.67,1.34-1.41,2.51-2.63,3.71-3.89Z"/>
    <path d="M495.06,17.74c-1.57-.8-3.3-1.09-4.57-2.39-.5-.51-.75-.99-.5-1.84,1.58,.08,3.2,.16,4.81,.23,.11,.28,.24,.46,.22,.61-.16,1.25,.54,1.79,1.6,2.12,.6,.18,1.17,.49,1.82,.76,.04,.59,.08,1.16,.15,2.07-1.19-1.08-2.15-1.95-3.22-2.92-.11,.49-.19,.85-.31,1.35Z"/>
    <path d="M381.18,4.17c.8,1.82-.37,3.29-.5,5.18-2.07-1.59-3.91-2.99-5.75-4.4l.09-.26c1.98-.17,3.96-.33,6.16-.52Z"/>
    <path d="M457.39,46.83c2.12,1.62,4.23,3.25,6.55,5.03-1.68,.49-3.13,.92-4.79,1.41-.67-2.13-1.33-4.22-1.99-6.3,.08-.04,.15-.09,.23-.13Z"/>
    <path d="M468.17,8.51v6.5c-2.11,.15-2.73-1.75-4.21-2.69,1.46-1.32,2.8-2.53,4.21-3.81Z"/>
    <path d="M459.69,40.68c1.2-1.9,2.32-3.69,3.52-5.58,.85,.89,.41,1.88,.51,2.75,.1,.89,.02,1.8,.02,2.84h-4.05Z"/>
    <path d="M493.9,22.33c-.95-.81-1.77-1.51-2.58-2.21-.66-.56-1.28-1.17-1.97-1.68-.88-.64-.96-1.42-.62-2.59,.69,.43,1.34,.73,1.87,1.17,.84,.69,1.54,1.56,2.41,2.21,1.04,.78,1.08,1.75,.89,3.1Z"/>
    <path d="M475.89,40.33v-5.14c1.63,1.79,3.07,3.36,4.69,5.14h-4.69Z"/>
    <path d="M400.59,4.68c-2.76-.18-5.42-.35-8.08-.52,2.95-.98,5.98-1.46,9.21-1.76-.19,.88-.69,1.5-1.13,2.28Z"/>
    <path d="M417.68,3.41c-.66,.66-1.32,1.33-2,1.97-.15,.14-.41,.22-.61,.21-1-.03-2.03,.06-2.97-.2-.66-.18-1.18-.86-1.76-1.32,.04-.11,.08-.21,.11-.32,2.35-.2,4.71-.4,7.06-.59l.16,.25Z"/>
    <path d="M381.46,12.61c.31-1.28,.61-2.52,.99-4.09,1.16,2.23,2.17,4.18,3.19,6.17-1.37,.32-1.47,.21-4.19-2.07Z"/>
    <path d="M446.77,29.41c-1.14-.27-2.29-.51-3.41-.84-.29-.08-.64-.39-.74-.67-.52-1.49-.97-3.01-1.44-4.52,.08-.05,.16-.1,.24-.15,1.82,1.98,3.64,3.96,5.46,5.94-.03,.08-.07,.16-.1,.23Z"/>
    <path d="M489.89,.2c1.23-.07,2.29-.14,3.35-.2,.31,.96-1.26,1.5-.28,2.37-.65,.61-1.24,1.16-1.94,1.81-.36-1.3-.72-2.56-1.12-3.99Z"/>
    <path d="M479.39,.94h1.23c.33,1.16,.67,2.33,1,3.5,.27,.95-.56,1.19-1.02,1.7-.92-.7-1.33-1.52-1.22-2.63,.08-.8,.02-1.62,.02-2.57Z"/>
    <path d="M463.04,14.91c1.02,.06,1.91,.06,2.79,.17,.32,.04,.64,.3,.91,.53,.53,.47,1.13,.92,1.51,1.5,.26,.4,.2,1,.33,1.72-1.91-1.36-3.61-2.57-5.53-3.93Z"/>
    <path d="M493.1,28.24c.82-1.3,1.6-2.54,2.38-3.78,.09,.02,.19,.05,.28,.07v4.35c-.87,.04-1.72-.25-2.66-.64Z"/>
    <path d="M499.42,5.59c-.78-.05-1.36-.09-1.9-.13-.71-1.48-.7-1.47,.28-2.53,.31-.33,.54-.73,.97-1.31,.9,1.45,.53,2.65,.64,3.97Z"/>
    <path d="M476.4,33.31v-4.34c.87,.21,1.68,.39,2.68,.63-.87,1.38-1.63,2.6-2.39,3.81-.1-.03-.2-.07-.29-.1Z"/>
    <path d="M500.9,5.06c.68,.05,1.29,.09,2.05,.14v4.13c-1.42-1.05-1.73-2.59-2.05-4.27Z"/>
    <path d="M413.75,36.66c-.31-1.63-.55-2.95-.87-4.62,1.15,.88,2.02,1.56,3.03,2.34-.69,.72-1.32,1.39-2.16,2.28Z"/>
    <path d="M451.59,42.65c.44,1.39,.87,2.79,1.31,4.18-.08,.05-.15,.1-.23,.15-.91-.7-1.81-1.4-2.79-2.15,.51-.82,.96-1.53,1.41-2.25,.1,.02,.2,.04,.3,.06Z"/>
    <path d="M457.89,14.16c.55-.5,1.04-.95,1.62-1.48,.8,.74,1.61,1.5,2.43,2.26-.03,.09-.07,.17-.1,.26-1.29-.13-2.71,.42-3.94-1.03Z"/>
    <path d="M392.36,20.71c-.34,.68-.62,1.24-1,2-.89-1.54-1.67-2.9-2.45-4.26,.08-.06,.16-.13,.24-.19,1.02,.78,2.04,1.56,3.21,2.45Z"/>
    <path d="M467.62,1.61v3.3c-.08,.04-.15,.09-.23,.13-.8-1-1.59-2-2.56-3.22,1.06-.08,1.88-.14,2.79-.2Z"/>
    <path d="M393.78,24.4c-.88-1-.18-1.7,.37-2.53,.57,.13,1.12,.25,1.88,.42-.84,.79-1.51,1.43-2.25,2.12Z"/>
    <path d="M425.21,2.95c.28,.92,.52,1.68,.76,2.44-.06,.05-.13,.1-.19,.14-.86-.73-1.72-1.46-2.8-2.38,.89-.08,1.49-.14,2.23-.2Z"/>
    <path d="M504.63,8.03c1.52,1.29,1.66,1.78,1.33,4.63-.5-1.75-.92-3.19-1.33-4.63Z"/>
    <path d="M437.53,20.29c.38,1.21,.67,2.14,.96,3.08-.06,.05-.13,.09-.19,.14-.62-.66-1.23-1.32-2-2.14,.4-.35,.73-.64,1.23-1.08Z"/>
    <path d="M413.98,7.12c-.29,.35-.56,.69-.91,1.12-.78-.66-1.48-1.26-2.25-1.92,1.01-.04,1.81,.16,3.16,.8Z"/>
    <path d="M479.25,55.23c-.87-.66-1.75-1.33-2.66-2.02,1.1-.68,1.17-.69,1.74,.07,.42,.56,.92,1.08,1.15,1.75-.08,.07-.15,.13-.23,.2Z"/>
    <path d="M429.58,9.04c-2.07,.17-2.18,.27-2.67-2.29,.94,.81,1.7,1.46,2.67,2.29Z"/>
    <path d="M472.39,14.26c.64,.03,1.28,.06,2,.1v2.16c-.8-.74-1.45-1.35-2.11-1.96,.04-.1,.07-.2,.11-.29Z"/>
    <path d="M405.97,2.17c1.56-.49,2.69-.33,3.44,1.3-1.26-.19-2.21-.77-3.44-1.3Z"/>
    <path d="M479.93,52.62c.55-.16,.93-.27,1.5-.44,.06,.78,.12,1.48,.19,2.33-.91-.46-1.12-1.26-1.68-1.89Z"/>
    <path d="M477.75,7.5c-.12-.94-.19-1.54-.26-2.14l.25-.15c.31,.37,.63,.73,.98,1.15-.29,.34-.51,.6-.97,1.14Z"/>
    <path d="M406.01,4.49c-.08-.38-.14-.67-.27-1.22,.91,.4,1.6,.71,2.28,1.02-.02,.07-.04,.14-.06,.2h-1.95Z"/>
    <path d="M401.86,5.51c.17-.63,.35-1.19,.99-1.03,.27,.07,.44,.56,.78,1.03h-1.77Z"/>
    <path d="M485.96,6.07c.55-.59,.87-.93,1.3-1.39,.17,.53,.29,.91,.45,1.39h-1.74Z"/>
    <g>
      <path d="M327.92,90.03c-.64,.75-1.22,1.87-1.77,3.48,1.29-.9,2.32-1.68,2.99-2.33,2.26-2.12,.18-2.78-1.22-1.14Z"/>
      <path d="M282.42,80.25c-.12,0-.24,0-.32,0-1.27,.01-2.48,.32-3.66,.63-.44,.12-.71,.39-.91,.84-1.33,3.12-2.69,6.24-4.02,9.38-.75,1.9-1.44,3.86-2.16,5.82,.06,.06,.09,.12,.18,.18,.26-.15,.56-.21,.82-.39,3.09-1.51,5.76-3.6,8.07-6.14,1.35-1.49,2.48-3.07,3.21-4.91,.41-.92,.72-1.93,.86-2.94,.25-1.69-.38-2.36-2.06-2.47Z"/>
      <path d="M320.9,65.4c-.64,.75-1.22,1.87-1.77,3.48,1.29-.9,2.32-1.68,2.99-2.33,2.26-2.12,.18-2.78-1.22-1.14Z"/>
      <path d="M338.23,72.4c2.58,.51,8.07-2.8,9.15-5.14-2.4-1.01-8.28,2.5-9.15,5.14Z"/>
      <path d="M396.1,70.3c1.73-1.61,3.86-4.83,2.14-5.17-1.01-.2-1.86,.16-2.62,.82-.73,.69-1.26,1.46-1.63,2.32-1.27,3.09-.84,5.01,2.12,2.02Z"/>
      <path d="M365.06,70.58c1.73-1.61,3.86-4.83,2.14-5.17-1.01-.2-1.86,.16-2.62,.82-.73,.69-1.26,1.46-1.63,2.32-1.27,3.09-.84,5.01,2.12,2.02Z"/>
      <path d="M335.72,36.04c-.64,.75-1.22,1.87-1.77,3.48,1.29-.9,2.32-1.68,2.99-2.33,2.26-2.12,.18-2.78-1.22-1.14Z"/>
      <path d="M420.51,101.36v-3.08c8.62,1.86,17.12,3.7,25.82,5.58-.21-4.52-.42-8.88-.62-13.31-8.26-2.54-16.44-5.04-24.9-7.64,5.19-3.09,10.12-6.01,15.13-8.99-.3-.81-.57-1.55-.88-2.38-5.03,2.08-9.91,4.1-14.79,6.12,1.41-2.03,2.94-3.84,4.47-5.65,2.4-2.82,4.8-5.64,7.18-8.46,.31-.37,.77-.69,.56-1.3-.21-.59-.4-1.19-.63-1.86-1.51,.61-2.92,1.19-4.64,1.88,.8-1.78,1.45-3.24,2.23-4.97-4.93,1.39-9.55,2.69-14.5,4.09,3.24-5.29,6.3-10.28,9.38-15.32-.75-.57-1.43-1.03-2.04-1.57-.56-.49-1.16-.62-1.88-.61-3.1,.08-6.21,.1-9.31,.17-11.87,.25-23.74,.5-35.6,.75-.4,0-.8,0-1.27,0-1.99-12.02-3.97-23.93-5.95-35.88-36.3,2.85-72.42,5.69-108.63,8.54-1.86,32.05-3.7,63.97-5.56,96h187.03c-.23-2.64-.46-5.17-.69-7.72-6.73-1.48-13.35-2.94-19.92-4.38Zm-27-39.23c1.73-1.35,3.8-1.72,5.85-.79,.62,.26,1.16,.73,1.75,1.11,.35-.24,.68-.54,1.06-.75,.82-.54,1.62-.52,2.28,0,.69,.56,.87,1.29,.61,2.09-.37,1.07-.81,2.08-1.15,3.18-.55,1.57-1.09,3.15-1.64,4.72-.14,.5-.14,.95,.04,1.42,.3,.8,.13,1.51-.45,1.96-.62,.48-1.38,.55-2.1,.08-.68-.44-1.1-1.08-1.38-1.85-.09-.29-.18-.62-.33-1.06-.29,.33-.56,.63-.85,.92-.97,1.01-1.99,1.97-3.47,2.31-1.42,.31-2.57-.12-3.47-1.18-.69-.76-1.02-1.68-1.12-2.68-.21-3.93,1.26-7.11,4.38-9.48Zm-17.78,1.88c.2-.62,.52-1.22,.81-1.78,.23-.36,.44-.65,.79-.89,1.06-.81,2.54-.47,2.87,.74,.12,.68,.1,1.39,.11,2.07-.02,1.36-.03,2.69-.05,3.99-.03,2.81,.34,2.16,2.01-.02,1.2-1.64,2.33-3.28,3.5-4.88,.41-.57,.79-1.19,1.17-1.76,.2-.27,.38-.48,.56-.69,.44-.39,1.06-.48,1.48-.28,.5,.17,.72,.67,.57,1.24-.06,.15-.09,.3-.2,.45-1.77,3.6-3.57,7.13-5.93,10.5-.53,.71-1.14,1.43-1.81,2.06-1.94,1.76-4.36,1.55-5.71-.36-1.95-2.7-1.19-7.38-.15-10.38Zm-13.26-1.59c1.73-1.35,3.8-1.72,5.85-.79,.62,.26,1.16,.73,1.75,1.11,.35-.24,.68-.54,1.06-.75,.82-.54,1.62-.52,2.28,0,.69,.56,.87,1.29,.61,2.09-.37,1.07-.81,2.08-1.15,3.18-.55,1.57-1.09,3.15-1.64,4.72-.14,.5-.14,.95,.04,1.42,.3,.8,.13,1.51-.45,1.96-.62,.48-1.38,.55-2.1,.08-.68-.44-1.1-1.08-1.38-1.85-.09-.29-.18-.62-.33-1.06-.29,.33-.56,.63-.85,.92-.97,1.01-1.99,1.97-3.47,2.31-1.42,.31-2.57-.12-3.47-1.18-.69-.76-1.02-1.68-1.12-2.68-.21-3.93,1.26-7.11,4.38-9.48Zm-15.4-30.09c1.38-1.23,3.66-.48,4.21,1.29,.03,.21,.06,.38,.09,.68,.41-.12,.68-.21,.94-.33,1.33-.4,2.51-.08,3.41,1.03,.45,.62,.9,1.15,1.67,1.49,.5,.2,.78,.73,.75,1.29-.08,.56-.46,.92-1.08,1.02-1.98,.4-2.67-.6-4.27-1.53-1.55-1.08-3.65,1.81-4.14,3.26-.37,1.42-.53,3.32-.99,4.71-.29,.83-.78,1.49-1.76,1.76-1.71,.46-3.5-.88-3.45-2.6,.03-.36,.08-.65,.17-1.01,.97-3.35,2.21-6.68,3.6-9.91,.2-.42,.49-.86,.85-1.16Zm8.83,32.07c.53,.2,.98,.52,1.25,1.05,.24,.56,.25,1.12-.16,1.6-.35,.48-.88,.6-1.44,.46-.3-.03-.56-.14-.86-.14-.41-.03-.86-.02-1.3-.02-.23,.42-.44,.77-.67,1.16-1.25,2.14-2.77,4.11-4.77,5.66-1.85,1.44-3.94,2.31-6.27,2.39-1.3,.1-2.63-.15-3.82-.82-1.96-1.11-2.69-3.08-1.88-5.19,.4-1.04,1.08-1.9,1.87-2.65,1.41-1.28,3.05-2.19,4.79-2.85,1.94-.73,3.92-1.28,6.02-1.3,.62,0,1.03-.22,1.29-.87,.87-1.93,1.8-3.86,2.67-5.82,.12-.18,.14-.39,.26-.71-1.47,.72-2.83,1.42-4.21,2.11-1.32,.6-2.74,1.03-4.19,1.28-.92,.1-1.66-.25-1.9-1.05-.18-.74,.1-1.48,.93-1.78,2.68-1.09,4.94-2.74,7.29-4.39,.73-.51,1.5-1.02,2.29-1.5,.38-.27,.76-.45,1.24-.6,.77-.36,1.45-.22,2.01,.45,.12,.15,.21,.29,.36,.38,.92,.46,1.11,1.26,1.05,2.18-.1,2.13-.52,4.2-1.18,6.19-.4,1.33-.95,2.64-1.41,4.01-.06,.12-.12,.21-.14,.42,.33,.14,.59,.2,.89,.35Zm-38.8-37.62c.47-.21,.97-.3,1.48-.28,2.54,0,5.09,.07,7.78,.11,1.28-2.11,1.25-2.2,2.92-3.99,.35-.42,.76-.81,1.17-1.11,.79-.51,1.59-.55,2.31-.05,1.73,1.2,.07,3.96-.31,5.27,.38,.03,.68,.05,.98,.05,2.6,.04,5.17,.04,7.78,.05,1.01,.02,2.01-.08,3.01-.12,.38,0,.77-.04,1.12-.01,.47,.05,.8,.38,.78,.85,.06,.47-.17,.89-.58,1.1-.32,.12-.65,.24-.94,.25-2.27,.23-4.52,.43-6.74,.54-2.16,.14-4.28,.19-6.44,.33-.27,0-.56,.03-.89,.1-2.32,4.61-5.08,10.16-3.86,14.17,.63,.94,.64,1.77,.02,2.63-1.26,1.73-3.62,1.31-4.55-.25-2.76-4.77,.27-11.86,2.27-16.26-.92-.05-1.77-.07-2.63-.12-1.36-.08-2.78-.18-4.2-.29-.3-.03-.62-.17-.89-.35-.92-.67-.7-2.09,.42-2.61Zm8.45,42.28c.41-.42,1.03-.39,1.54-.07,.56,.32,.75,.88,.69,1.47-.06,.36-.2,.71-.37,1.04-.72,1.54-1.78,2.8-3.16,3.82-2.03,1.44-4.12,1.58-6.35,.62-5.83-3.67-3.08-13.43,3.35-14.73,4.34-.87,6.6,3.84,4.55,5.9-1.73,1.82-4.37,3.44-6.19,4.85,1.85,2.02,4.22-1.16,5.94-2.89Zm-23.46-24.81c.41-4.09,1.86-9.6,4.91-12.26,.73-.63,1.56-1.02,2.48-.85,1.99,.57,1.91,2.35,1.31,3.86,3.26-2.25,8.16-3.54,8.21,1.91,.03,3.25-1.28,8.23-2.9,9.55-2.14,1.76-4.84,.64-4.45-1.56,.14-.83,1.82-4.96,1.92-7,.08-1.21-.87-1.15-1.72-.63-2.06,1.29-3.68,4.62-4.45,7.79-.37,1.6-1.84,2.62-3.35,2.25-1.93-.49-2.11-1.49-1.95-3.06Zm-.43,11.99c.38,.03,.68,.05,.98,.05,.2,0,.4,0,.6,0,.29-.51,.59-1,.89-1.47,1.02-1.61,3.01-3.52,4.83-2.17,1.32,.9,1.11,2.44,.54,3.68,.3,0,.61,0,.91,0,1.01,.02,2.01-.08,3.01-.12,.38,0,.77-.04,1.12-.01,.47,.05,.8,.38,.78,.85,.06,.47-.17,.89-.58,1.1-.32,.12-.65,.24-.94,.25-1.96,.2-3.89,.37-5.8,.48-1.62,2.85-2.33,5.25-3.16,8.45,1.55-1.32,2.99-2.6,4.82-3.39,3.62-1.51,4.53,1.23,3.75,3.25-.49,1.25-1.23,4.83-1.42,6.17-.11,.53-.26,1.1-.49,1.57-.38,.89-1.17,1.37-2.03,1.35-4.05-.29-2.89-5.68-1.76-7.91,.41-.8,.57-1.84-.8-.5-1.35,1.34-3.36,3.88-3.49,6.3-.05,1.01-.49,1.72-1.34,2.02-4.04,1.43-3.3-4.76-3.08-6.66,.41-3.95,1.42-7.38,2.75-10.34-.38,.02-.75,.04-1.13,.06-.27,0-.56,.03-.89,.1-2.32,4.61-5.08,10.16-3.86,14.17,.63,.94,.64,1.77,.02,2.63-1.26,1.73-3.62,1.31-4.55-.25-2.76-4.77,.27-11.86,2.27-16.26-.92-.05-1.77-.07-2.63-.12-1.36-.08-2.78-.18-4.2-.29-.3-.03-.62-.17-.89-.35-.92-.67-.7-2.09,.42-2.61,.47-.21,.97-.3,1.48-.28,2.54,0,5.09,.07,7.78,.11,1.28-2.11,1.25-2.2,2.92-3.99,.35-.42,.76-.81,1.17-1.11,.79-.51,1.59-.55,2.31-.05,1.73,1.2,.07,3.96-.31,5.27Zm-3.63,27.04c-.29,.62-.67,1.28-1.11,1.84-.55,.77-1.44,1.02-2.18,.73-.83-.29-1.28-1.05-1.26-2.35,.08-1.01,.84-1.99,1.93-2.74,.62-.42,1.54-.19,2.1,.31,.6,.53,.87,1.41,.52,2.21Zm-21.42-42.1c.54-1.87,1.62-3.42,2.97-4.82,1.41-1.49,2.99-2.75,4.75-3.86,.26-.15,.47-.3,.76-.48-.79-2.09-.33-3.93,.89-5.57,1.72-2.38,4.19-3.74,6.93-4.59,1.65-.46,3.28-.62,4.97-.16,.8,.17,1.57,.55,2.26,1.04,1.76,1.29,2.01,3.44,.61,5.14-.44,.54-.97,1.01-1.49,1.46-.41,.39-.88,.39-1.33,.16-.45-.2-.69-.67-.6-1.27,.06-.41,.2-.83,.28-1.27,.08-.62-.07-.77-.66-.97-.74-.23-1.48-.16-2.25,0-1.8,.37-3.42,1.16-4.71,2.53-.38,.39-.7,.81-.81,1.52,.44,.08,.86,.11,1.27,.2,1.57,.13,2.65,1.54,2.27,3.03-.23,.92-.99,1.7-1.93,1.82-3.04,.35-5.39,2.06-7.38,4.24-.59,.66-1.11,1.43-1.52,2.23-.84,1.6-.3,2.46,1.53,2.44,1.89,.04,3.6-.62,5.31-1.38,1.94-.88,3.77-2.02,5.32-3.54,.76-.66,1.52-1.37,2.26-2.09,.23-.21,.41-.51,.41-.71,.11-1.12,.84-1.69,1.73-1.91,1.06-.19,2.1,.25,2.64,1.16,.36,.65,.46,1.42,.23,2.07-.26,.8-.55,1.54-.95,2.23-1.28,2.17-3.1,3.87-5.15,5.31-2.88,2.01-6,3.46-9.45,4.11-1.48,.25-2.92,.35-4.38-.02-3.79-.85-5.83-4.23-4.77-8.03Zm4.16,56.01c-2.47,1.59-5.09,2.95-7.95,3.71-.8,.18-1.53,.31-2.3,.46-.06,.18-.09,.39-.11,.53-.4,1.28-1.79,1.7-2.77,.79-.33-.32-.6-.85-.78-1.29-.15-.32-.36-.59-.69-.7-.27-.12-.53-.26-.74-.41-.71-.44-.99-1.14-.73-1.86,.29-.71,.91-1.04,1.74-.96,.12,0,.24,.06,.42,.11,.96-4.53,1.87-9.04,3.6-13.4-.09-.09-.18-.18-.3-.29-.51-.65-.6-1.38-.02-2.01,.44-.54,1.06-.99,1.61-1.43,.35-.27,.64-.63,.91-1.01,.7-1.07,1.4-2.14,2.25-3.19,.41-.51,1.06-.93,1.64-1.2,1.21-.57,2.39-.02,2.88,1.25,.03,.12,.09,.18,.09,.29,1.27-.07,2.36-.29,3.54-.27,.74,0,1.57,.16,2.28,.39,2.31,.81,3.57,2.57,3.86,4.99,.32,2.45-.19,4.82-1.21,7.05-1.62,3.51-3.99,6.34-7.22,8.44Zm15.22-6.94c-.08,.53-.32,1.04-.61,1.48-1.11,1.73-3.34,6.21-3.33,8.02,0,.86-.37,1.48-1.14,1.87-.8,.33-1.54,.22-2.22-.28-.66-.53-1.02-1.23-1.14-2.09-.16-.97-.14-1.92,.03-2.87,.48-2.81,1.84-5.34,3.27-7.63,.5-.71,1.17-1.19,2.03-1.44,1.86-.49,3.5,1.06,3.1,2.93Zm24.36,.54c-.6,2.46-1.67,5.07-1.91,7.59-.06,.41-.2,.8-.37,1.16-.52,1.16-1.67,1.82-2.73,1.59-2.99-.15-2.6-3.02-2.03-4.89,2.61-8.45,3.2-9.11-3.17-.83-.35,.42-.64,.92-1.05,1.25-1.06,.84-2.3,.35-2.58-.95-.12-.47-.1-1.03-.01-1.54,1.34-8.29-3.39,.83-4.75,4.24-.17,.45-.32,.92-.58,1.34-.58,.98-1.79,1.38-2.89,1.09-1.1-.34-1.87-1.2-1.94-2.35,0-.47,.05-1.01,.16-1.45,1.03-3.88,2.7-8.45,5.16-11.35,1.2-1.28,4.1-.87,3.88,1.15-.05,.5-.29,1.1-.69,1.72,3.21-1.3,5.02-.46,5.07,1.76,1.9-2.21,4.53-5.45,7.79-4.83,2.99,.53,3.22,2.99,2.65,5.3Zm14.44,4.3c-.06,.36-.2,.71-.37,1.04-.72,1.54-1.78,2.8-3.16,3.82-2.03,1.44-4.12,1.58-6.35,.62-5.83-3.67-3.08-13.43,3.35-14.73,4.34-.87,6.6,3.84,4.55,5.9-1.73,1.82-4.37,3.44-6.19,4.85,1.85,2.02,4.22-1.16,5.94-2.89,.41-.42,1.03-.39,1.54-.07,.56,.32,.75,.88,.69,1.47Zm-2.08-48.52c-5.83-3.67-3.08-13.43,3.35-14.73,4.34-.87,6.6,3.84,4.55,5.9-1.73,1.82-4.37,3.44-6.19,4.85,1.85,2.02,4.22-1.16,5.94-2.89,.41-.42,1.03-.39,1.54-.07,.56,.32,.75,.88,.69,1.47-.06,.36-.2,.71-.37,1.04-.72,1.54-1.78,2.8-3.16,3.82-2.03,1.44-4.12,1.58-6.35,.62Zm16.73,53.5c-2.14,1.77-4.84,.64-4.45-1.56,.14-.83,1.82-4.96,1.92-7,.08-1.21-.87-1.15-1.72-.63-2.06,1.29-3.68,4.62-4.45,7.79-.37,1.6-1.84,2.62-3.35,2.25-1.93-.49-2.11-1.49-1.95-3.06,.41-4.09,1.86-9.6,4.91-12.26,.73-.63,1.56-1.02,2.48-.85,1.99,.57,1.91,2.35,1.31,3.86,3.26-2.25,8.16-3.54,8.21,1.91,.03,3.25-1.28,8.23-2.9,9.55Zm16.19-8.16c-.56,.45-1.03,.45-1.48,.16-.36-.29-.48-.71-.34-1.42,.03-.09,.06-.18,.12-.3,.54-2.67-3.24-2.01-3.55,.21,0,.21,.06,.44,.21,.59,.36,.35,.77,.64,1.13,.97,1.88,1.55,2.9,3.61,2.92,5.92,.04,4.53-5.26,10.1-10.04,7.46-3.24-1.74-2.58-7.37,.33-9.44,.56-.3,1.12-.31,1.66,.1,.48,.32,.66,.85,.6,1.41-.14,.92-.35,.98-.34,1.81-.07,1.78,1.58,1.32,2.18-.43,.86-2.37-1.42-3.57-2.71-5-1.2-1.38-1.66-3.33-1.08-5.05,1.24-3.53,5.22-5.08,8.71-4.01,1.9,.6,3.09,2.01,3.2,3.79,.07,1.36-.54,2.4-1.54,3.24Zm10.12-2.4c-.08,.53-.32,1.04-.61,1.48-1.11,1.73-3.34,6.21-3.33,8.02,0,.86-.37,1.48-1.14,1.87-.8,.33-1.54,.22-2.22-.28-.66-.53-1.02-1.23-1.14-2.09-.16-.97-.14-1.92,.03-2.87,.48-2.81,1.84-5.34,3.27-7.63,.5-.71,1.17-1.19,2.03-1.44,1.86-.49,3.5,1.06,3.1,2.93Zm-1.25-4.4c-.83-.29-1.28-1.05-1.26-2.35,.08-1.01,.84-1.99,1.93-2.74,.62-.42,1.54-.19,2.1,.31,.6,.53,.87,1.41,.52,2.21-.29,.62-.67,1.28-1.11,1.84-.55,.77-1.44,1.02-2.18,.73Zm12.51,13.19c-4.48,4.45-10.97,2.44-10.03-4.02,.14-.95,.37-1.9,.54-2.79,.42-2.4,1.77-4.04,4.12-5.48,2.94-1.83,6.14-1.51,7.84,.34,2.84,3.14,.35,9.25-2.46,11.94Zm18.43,1.25c-2.14,1.76-4.84,.64-4.45-1.56,.14-.83,1.82-4.96,1.92-7,.08-1.21-.87-1.15-1.72-.63-2.06,1.29-3.68,4.62-4.45,7.79-.37,1.6-1.84,2.62-3.35,2.25-1.93-.49-2.11-1.49-1.95-3.06,.41-4.09,1.86-9.6,4.91-12.26,.73-.63,1.56-1.02,2.48-.85,1.99,.57,1.91,2.35,1.31,3.86,3.26-2.25,8.16-3.54,8.21,1.91,.03,3.25-1.28,8.23-2.9,9.55Z"/>
      <path d="M384.53,89.6c-.21,.12-.35,.39-.32,.54,.18,.56-.08,1.04-.52,1.51-.85,.84-1.28,1.73-1.57,2.68-1.27,3.68,1.42,3.24,3.46,.41,.93-1.52,1.71-3.3,1.55-4.86-.01-1.15-1.79-1.29-2.6-.27Z"/>
    </g>
  </g>
  <g>
    <path class="cls-1" d="M150.35,113.61h-19.9l.23-1.61c.04-.31,.12-.67,.31-1.02,.2-.35,.43-.67,.78-.98l9.64-8.62c.82-.74,1.53-1.41,2.19-2.08,.67-.67,1.21-1.33,1.68-2,.47-.67,.86-1.33,1.14-2,.27-.67,.47-1.37,.55-2.12,.08-.67,.04-1.29-.08-1.8-.12-.51-.35-.94-.67-1.29-.31-.35-.74-.63-1.21-.78-.47-.16-1.06-.27-1.68-.27-1.18,0-2.15,.31-2.98,.9-.82,.59-1.41,1.37-1.84,2.35-.2,.51-.47,.86-.78,1.06-.31,.2-.7,.35-1.14,.35-.2,0-.39-.04-.63-.08l-2.51-.43c.35-1.37,.86-2.59,1.57-3.6,.71-1.02,1.49-1.84,2.43-2.55,.94-.67,1.96-1.21,3.09-1.57,1.14-.35,2.31-.51,3.56-.51s2.51,.2,3.53,.59c1.02,.39,1.92,.94,2.59,1.65,.67,.71,1.18,1.57,1.49,2.55,.31,.98,.39,2.08,.24,3.29-.12,1.06-.39,2-.82,2.9-.43,.9-.9,1.72-1.53,2.55-.63,.82-1.33,1.61-2.12,2.35-.78,.74-1.61,1.53-2.47,2.31l-7.17,6.54c.67-.2,1.25-.31,1.88-.43,.63-.08,1.21-.16,1.76-.16h6.23c.2-1.02,.35-1.61,.39-1.76,.16-.47,.51-.71,1.02-.71h2.08l-.35,2.74-.51,4.23Z"/>
    <path class="cls-1" d="M174.05,105.89c-.74,1.8-1.65,3.33-2.74,4.5-1.1,1.18-2.31,2.08-3.64,2.66-1.33,.59-2.74,.86-4.23,.86s-2.82-.27-4-.86c-1.17-.59-2.15-1.49-2.94-2.66-.78-1.18-1.29-2.7-1.61-4.5-.31-1.8-.31-4,0-6.46,.31-2.47,.82-4.62,1.57-6.42,.74-1.8,1.68-3.33,2.74-4.5,1.06-1.18,2.27-2.08,3.6-2.66,1.33-.59,2.7-.86,4.19-.86s2.82,.27,4.03,.86c1.21,.59,2.19,1.49,2.98,2.66,.78,1.18,1.33,2.7,1.65,4.5,.31,1.8,.31,3.96,0,6.42-.31,2.47-.86,4.66-1.61,6.46Zm-3.21-11.56c-.12-1.33-.43-2.43-.82-3.21-.39-.78-.9-1.33-1.53-1.65-.63-.31-1.25-.51-1.96-.51s-1.37,.2-2.08,.51c-.7,.31-1.33,.86-1.92,1.65-.59,.78-1.1,1.88-1.57,3.21-.47,1.33-.86,3.06-1.1,5.09-.24,2.04-.27,3.76-.16,5.09,.12,1.33,.39,2.43,.78,3.21,.39,.78,.9,1.37,1.49,1.68,.59,.31,1.25,.51,1.96,.51s1.41-.2,2.12-.51c.71-.31,1.33-.86,1.92-1.65,.59-.78,1.14-1.92,1.61-3.25,.47-1.33,.82-3.06,1.06-5.09,.24-2.04,.31-3.76,.2-5.09Z"/>
    <path class="cls-1" d="M195.32,113.61h-19.9l.23-1.61c.04-.31,.12-.67,.31-1.02,.2-.35,.43-.67,.78-.98l9.64-8.62c.82-.74,1.53-1.41,2.19-2.08,.67-.67,1.21-1.33,1.68-2,.47-.67,.86-1.33,1.14-2,.27-.67,.47-1.37,.55-2.12,.08-.67,.04-1.29-.08-1.8-.12-.51-.35-.94-.67-1.29-.31-.35-.74-.63-1.21-.78s-1.06-.27-1.68-.27c-1.18,0-2.15,.31-2.98,.9-.82,.59-1.41,1.37-1.84,2.35-.2,.51-.47,.86-.78,1.06-.31,.2-.7,.35-1.14,.35-.2,0-.39-.04-.63-.08l-2.51-.43c.35-1.37,.86-2.59,1.57-3.6,.71-1.02,1.49-1.84,2.43-2.55,.94-.67,1.96-1.21,3.09-1.57,1.14-.35,2.31-.51,3.56-.51s2.51,.2,3.53,.59c1.02,.39,1.92,.94,2.59,1.65,.67,.71,1.18,1.57,1.49,2.55,.31,.98,.39,2.08,.24,3.29-.12,1.06-.39,2-.82,2.9-.43,.9-.9,1.72-1.53,2.55-.63,.82-1.33,1.61-2.12,2.35-.78,.74-1.61,1.53-2.47,2.31l-7.17,6.54c.67-.2,1.25-.31,1.88-.43,.63-.08,1.21-.16,1.76-.16h6.23c.2-1.02,.35-1.61,.39-1.76,.16-.47,.51-.71,1.02-.71h2.08l-.35,2.74-.51,4.23Z"/>
    <path class="cls-1" d="M215.17,85.52c1.02,.39,1.84,.9,2.51,1.57,.67,.67,1.18,1.41,1.45,2.31,.27,.9,.35,1.88,.24,2.9-.12,.9-.31,1.65-.59,2.35-.27,.71-.71,1.29-1.14,1.8-.43,.51-.98,.94-1.57,1.29-.59,.35-1.25,.67-2,.9,1.65,.55,2.82,1.33,3.53,2.43s.94,2.51,.74,4.15c-.16,1.41-.59,2.62-1.25,3.72-.67,1.1-1.45,2-2.43,2.74-.98,.74-2.08,1.29-3.29,1.68-1.21,.39-2.51,.55-3.8,.55-1.41,0-2.62-.16-3.64-.47-1.02-.31-1.88-.86-2.59-1.49-.7-.63-1.29-1.41-1.72-2.35-.43-.94-.78-2-1.02-3.21l2.23-.86c.39-.16,.74-.24,1.14-.24,.35,0,.67,.08,.9,.24,.23,.16,.43,.35,.55,.63,.2,.47,.35,.9,.59,1.33,.23,.43,.51,.82,.86,1.18,.35,.35,.78,.63,1.29,.86,.51,.23,1.1,.31,1.84,.31,.82,0,1.57-.12,2.23-.39,.67-.27,1.18-.63,1.65-1.06,.47-.43,.82-.9,1.1-1.45,.27-.55,.43-1.02,.51-1.57,.08-.67,.08-1.33,0-1.88-.08-.55-.31-1.02-.7-1.41s-1.06-.71-1.88-.94c-.82-.23-1.96-.31-3.41-.31l.43-3.45c1.18,0,2.19-.12,3.02-.31,.82-.2,1.45-.55,1.96-.9,.51-.39,.9-.82,1.14-1.33,.23-.51,.43-1.1,.51-1.72,.16-1.33-.08-2.35-.74-3.06-.67-.71-1.61-1.02-2.86-1.02-1.14,0-2.15,.27-2.98,.9-.82,.63-1.45,1.41-1.88,2.35-.23,.51-.47,.82-.78,1.06-.31,.24-.67,.35-1.1,.35-.2,0-.43-.04-.67-.08l-2.47-.47c.35-1.37,.86-2.55,1.57-3.56,.71-1.02,1.45-1.84,2.39-2.55,.94-.71,1.96-1.21,3.09-1.57,1.14-.35,2.35-.51,3.6-.51s2.43,.16,3.45,.55Z"/>
  </g>
</svg>