<?xml version="1.0" encoding="utf-8"?>
<!-- Generator: Adobe Illustrator 26.0.0, SVG Export Plug-In . SVG Version: 6.00 Build 0)  -->
<svg version="1.1" id="Layer_1" xmlns="http://www.w3.org/2000/svg" xmlns:xlink="http://www.w3.org/1999/xlink" x="0px" y="0px"
	 viewBox="0 0 506 233" style="enable-background:new 0 0 506 233;" xml:space="preserve">
<style type="text/css">
	.st0{fill:#231F20;}
	.st1{fill:#2DA44A;}
	.st2{fill:#7CC366;}
</style>
<g>
	<path class="st0" d="M470.9,117.1h-25.7c0.9,4.2,3.8,6.8,7.5,6.8c2.6,0,5.6-0.6,7.5-4l9.9,2c-3,7.4-9.4,11-17.4,11
		c-10.1-0.1-18.5-7.5-18.5-18.6s8.4-18.6,18.6-18.6c9.9,0,17.9,7.1,18.1,18.6L470.9,117.1z M445.5,110.3h14.5
		c-0.7-3.3-3.7-5.6-7-5.5C449.5,104.8,446.4,107,445.5,110.3"/>
	<path class="st0" d="M345.1,96.6l-0.5,11.1h-2c-7.8,0-12.1,4.1-12.1,13.1v10.9h-11.2v-35h11.2v6.7c2.5-4.2,6.4-7.2,12.1-7.2
		C343.4,96.3,344.3,96.4,345.1,96.6"/>
	<path class="st0" d="M362.5,86.5c-0.1,3.6-3.1,6.3-6.7,6.2c-3.4-0.1-6.1-2.8-6.2-6.2c0.1-3.6,3.1-6.3,6.7-6.2
		C359.7,80.4,362.4,83.1,362.5,86.5 M350.4,96.8h11.2v35h-11.2V96.8z"/>
	<path class="st0" d="M429,109.9v21.9h-11.1v-19.5c0-4-2.6-6.5-5.9-6.5c-4.1,0-6.8,3-6.8,8.9v17.1H394v-19.5c0-4-2.6-6.5-5.9-6.5
		c-4,0-6.7,3-6.7,8.9v17.1h-11.1v-35h11.2v3.2c2.7-2.9,6.4-4.4,10.3-4.3c4.9,0,9.1,2.1,11.5,5.9c2.9-3.9,7.6-6.1,12.4-5.9
		C423.1,95.7,429.1,101.4,429,109.9"/>
	<rect x="267.7" y="45.6" class="st0" width="11.6" height="11.6"/>
	<path class="st1" d="M255.3,80.6V68.9h-36v50.3c0,13.4,10.9,24.2,24.2,24.2v-11.7c-6.9,0-12.5-5.6-12.5-12.5V80.6H255.3z"/>
	<path class="st0" d="M290.9,68.9h-23.1v50.3c0,6.9-5.6,12.5-12.5,12.5v11.7c13.3,0,24.1-10.8,24.2-24.1l0,0V80.6H291
		c6.9-0.3,12.7,5.1,13,12c0.3,6.9-5.1,12.7-12,13c-0.3,0-0.7,0-1,0v11.7c13.4,0,24.2-10.8,24.2-24.2S304.3,68.9,290.9,68.9"/>
	<path class="st1" d="M352,161.9c0.2,1.2-0.7,2.4-1.9,2.6c-0.2,0-0.4,0-0.6,0h-21c-0.7,0-1.3,0.2-1.8,0.7c-0.5,0.5-0.8,1.1-0.8,1.8
		v1.5c0,1.4,1.1,2.6,2.5,2.6c0,0,0,0,0,0h21c1.4,0,2.5,1,2.5,2.4c0,0,0,0.1,0,0.1v1.5c0,0.7-0.2,1.3-0.7,1.8
		c-0.5,0.5-1.1,0.7-1.8,0.7h-27.6c-1.4,0-2.5-1.1-2.5-2.4c0,0,0-0.1,0-0.1v-14.5c0-0.7,0.2-1.4,0.7-1.9c0.5-0.5,1.2-0.7,1.8-0.7
		h21.1c0.7,0,1.3-0.2,1.8-0.7c0.5-0.5,0.8-1.1,0.7-1.8V154c0-0.7-0.2-1.3-0.7-1.8c-0.5-0.5-1.1-0.8-1.8-0.8h-21.1
		c-0.7,0-1.3-0.3-1.8-0.8c-0.5-0.5-0.7-1.2-0.7-1.9v-1.4c0-0.7,0.2-1.4,0.7-1.9c0.5-0.4,1.2-0.7,1.8-0.6h27.6
		c1.2-0.2,2.3,0.7,2.5,1.9c0,0.2,0,0.4,0,0.6V161.9z"/>
	<path class="st1" d="M391.1,175c0.2,1.2-0.7,2.3-1.9,2.5c-0.2,0-0.4,0-0.6,0H361c-0.7,0.1-1.4-0.2-1.9-0.7
		c-0.4-0.5-0.7-1.2-0.6-1.8v-27.6c0-0.7,0.2-1.3,0.7-1.8c0.5-0.5,1.1-0.7,1.8-0.7h27.6c0.7,0,1.4,0.2,1.9,0.7
		c0.4,0.5,0.7,1.1,0.6,1.8V175z M367.6,151.5c-0.7,0-1.3,0.2-1.8,0.7c-0.5,0.5-0.8,1.1-0.8,1.8v14.4c0,1.4,1.1,2.6,2.5,2.6
		c0,0,0,0,0,0H382c0.7,0,1.3-0.3,1.8-0.8c0.5-0.5,0.7-1.1,0.7-1.8V154c0-0.7-0.2-1.3-0.7-1.8c-0.5-0.5-1.1-0.7-1.8-0.7H367.6z"/>
	<path class="st1" d="M430.3,161.9c0.2,1.2-0.7,2.4-1.9,2.6c-0.2,0-0.4,0-0.6,0h-21c-0.7,0-1.3,0.2-1.8,0.7
		c-0.5,0.5-0.8,1.1-0.8,1.8v1.5c0,1.4,1.1,2.6,2.5,2.6c0,0,0,0,0,0h21c1.4,0,2.5,1.1,2.5,2.4c0,0,0,0.1,0,0.1v1.5
		c0,0.7-0.2,1.3-0.7,1.8c-0.5,0.5-1.1,0.7-1.8,0.7h-27.7c-0.7,0-1.3-0.2-1.8-0.7c-0.5-0.5-0.7-1.1-0.7-1.8v-14.5
		c0-0.7,0.2-1.4,0.7-1.9c0.5-0.5,1.1-0.7,1.8-0.7h21.1c0.7,0,1.3-0.2,1.8-0.7c0.5-0.5,0.8-1.1,0.7-1.8V154c0-0.7-0.2-1.3-0.7-1.8
		c-0.5-0.5-1.1-0.8-1.8-0.8h-21.1c-0.7,0-1.3-0.3-1.8-0.8c-0.5-0.5-0.7-1.2-0.7-1.9v-1.4c-0.1-0.7,0.2-1.4,0.7-1.9
		c0.5-0.4,1.2-0.7,1.8-0.6h27.6c1.2-0.2,2.4,0.7,2.5,1.9c0,0.2,0,0.4,0,0.6L430.3,161.9z"/>
	<path class="st1" d="M439.2,164.5c-1.2,0.2-2.4-0.7-2.5-1.9c0-0.2,0-0.4,0-0.6v-14.4c0-0.7,0.2-1.3,0.7-1.8
		c0.5-0.5,1.1-0.7,1.8-0.7h27.6c0.7,0,1.3,0.2,1.8,0.7c0.5,0.5,0.7,1.1,0.7,1.8v1.4c0,0.7-0.2,1.3-0.7,1.9c-0.5,0.5-1.1,0.8-1.8,0.8
		h-21c-0.7,0-1.3,0.2-1.8,0.7c-0.5,0.5-0.8,1.1-0.8,1.8v1.4c0,0.7,0.3,1.3,0.8,1.8c0.5,0.5,1.1,0.7,1.8,0.7h21
		c0.7,0,1.4,0.2,1.9,0.7c0.4,0.5,0.7,1.2,0.6,1.9V175c0.2,1.2-0.7,2.3-1.9,2.5c-0.2,0-0.4,0-0.6,0h-27.6c-0.7,0.1-1.4-0.2-1.9-0.7
		c-0.4-0.5-0.7-1.2-0.6-1.8v-1.5c0-1.4,1.1-2.5,2.4-2.5c0,0,0.1,0,0.1,0h21.1c0.7,0,1.3-0.3,1.8-0.8c0.5-0.5,0.7-1.1,0.7-1.8V167
		c0-0.7-0.2-1.3-0.7-1.8c-0.5-0.5-1.1-0.8-1.8-0.7L439.2,164.5z"/>
	<path class="st0" d="M61.1,73.9c-0.8,0.6-1.9,0.8-2.9,0.6l-2.4-0.4c-1-0.2-2.1,0-2.9,0.6c-0.8,0.6-1.3,1.5-1.3,2.4l-0.1,2.2
		c-0.1,1.1,0.3,2.1,1.1,2.8c0.7,0.8,1.8,1.4,2.9,1.5L77.6,87c1,0.2,1.9,0,2.7-0.6c0.7-0.6,1.1-1.4,1.1-2.3l0.1-2.1
		c0-1-0.3-1.9-1-2.7c-0.7-0.8-1.6-1.3-2.6-1.4l-2.1-0.4c-1-0.2-2-0.7-2.7-1.5c-0.7-0.8-1-1.7-1-2.7l1-29.3c0.1-1-0.3-2-0.9-2.8
		c-0.7-0.9-1.7-1.4-2.8-1.7l-10-2.5c-1-0.3-2-0.2-2.9,0.3c-0.8,0.5-1.3,1.4-1.2,2.3l-0.1,2c0,1.1,0.3,2.1,1,2.9
		c0.7,0.9,1.7,1.5,2.9,1.7c1.1,0.2,2.1,0.8,2.9,1.7c0.7,0.8,1,1.8,1,2.8l-0.8,20.6C62.3,72.4,61.8,73.3,61.1,73.9z"/>
	<path class="st0" d="M126.9,53.7l-34.4-8.5c-0.8-0.3-1.7-0.1-2.5,0.4c-0.7,0.5-1.1,1.3-1.1,2.2L87.9,85c-0.1,0.9,0.2,1.9,0.8,2.6
		c0.6,0.8,1.6,1.2,2.6,1.3l34.9,5.2c1.9,0.3,2.9-0.6,3-2.7l0.5-34c0-0.8-0.2-1.7-0.7-2.4C128.5,54.4,127.7,53.9,126.9,53.7z
		 M121.7,81.9c0,0.8-0.3,1.6-0.9,2.1c-0.6,0.5-1.4,0.8-2.2,0.6l-18.2-3.1c-0.9-0.2-1.8-0.7-2.4-1.4c-0.6-0.7-1-1.7-0.9-2.6l0.5-19.1
		c0-0.8,0.3-1.7,1-2.2c0.7-0.5,1.6-0.6,2.4-0.4l18,4.1c0.9,0.2,1.6,0.7,2.2,1.4c0.5,0.7,0.8,1.6,0.8,2.4L121.7,81.9z"/>
	<path class="st0" d="M140.8,87.5c-0.5,0.5-1.3,0.7-2,0.6l-1.6-0.3c-0.7-0.2-1.5,0.1-2,0.6c-0.6,0.5-0.9,1.3-0.8,2.1v1.9
		c0,0.8,0.3,1.7,0.8,2.3c0.5,0.6,1.2,1.1,2,1.2l15.4,2.3c0.7,0.1,1.4-0.1,1.9-0.6c0.5-0.5,0.8-1.3,0.8-2v-1.8c0-0.8-0.2-1.6-0.7-2.2
		c-0.4-0.6-1.1-1-1.9-1.1l-1.5-0.2c-0.8-0.1-1.4-0.6-1.9-1.2c-0.5-0.7-0.7-1.5-0.7-2.3l0.2-24.6c0-0.8-0.2-1.6-0.7-2.3
		c-0.5-0.7-1.2-1.1-2-1.3l-7-1.7c-0.7-0.2-1.4-0.1-2,0.4c-0.6,0.5-0.9,1.2-0.8,2v1.7c0,0.9,0.2,1.7,0.7,2.4c0.5,0.7,1.2,1.2,2,1.4
		c0.8,0.2,1.5,0.7,2,1.3c0.5,0.7,0.8,1.5,0.8,2.3l-0.2,17.2C141.6,86.2,141.3,86.9,140.8,87.5z"/>
	<path class="st0" d="M188.6,69.7c-0.3-0.6-0.9-1-1.6-1.1l-24.7-6.1c-0.6-0.2-1.3,0-1.7,0.4c-0.5,0.5-0.8,1.2-0.7,1.9l-0.2,31.5
		c0,0.8,0.2,1.6,0.6,2.2c0.4,0.6,1.1,1,1.8,1.1l25,3.7c1.4,0.2,2.1-0.6,2.1-2.4l-0.1-29.1C189.1,71,188.9,70.3,188.6,69.7z
		 M183,94.7c-0.4,0.5-1,0.7-1.6,0.6l-13-2.2c-0.7-0.1-1.3-0.5-1.7-1.1c-0.5-0.6-0.7-1.4-0.7-2.2l0.1-16.2c0-0.7,0.2-1.4,0.7-1.9
		c0.5-0.4,1.1-0.6,1.7-0.4l12.9,3c0.7,0.1,1.2,0.6,1.6,1.1c0.4,0.6,0.6,1.3,0.6,2v15.5C183.7,93.5,183.4,94.1,183,94.7L183,94.7z"/>
	<path class="st0" d="M76.4,96c-1-0.2-1.9,0.1-2.7,0.7c-0.7,0.6-1.2,1.5-1.2,2.4l-0.1,2c-0.1,2.2,1.5,4,3.7,4.2c1,0.1,2,0.6,2.7,1.3
		c0.7,0.7,1,1.7,1,2.6l-0.6,20.5c0,2-1.7,3.6-3.7,3.5c-0.1,0-0.1,0-0.2,0l-2.2-0.1c-1-0.1-2,0.3-2.8,0.9c-0.8,0.6-1.2,1.6-1.2,2.6
		l-0.1,2.2c-0.1,1,0.3,2,1,2.7c0.7,0.7,1.7,1.1,2.7,1.1l20.9,0.5c1.9,0.1,3.5-1.3,3.6-3.2c0-0.1,0-0.2,0-0.2l0.1-2.1
		c0.1-1.9-1.5-3.6-3.4-3.6l-2-0.1c-1,0-1.9-0.4-2.5-1.2c-0.6-0.7-1-1.6-0.9-2.6l0.8-29.1c0.1-1-0.3-1.9-0.9-2.6
		c-0.7-0.8-1.6-1.2-2.6-1.3L76.4,96z"/>
	<path class="st0" d="M105.3,100.7c-0.6,0.6-1,1.4-1,2.3l-0.9,37.2c-0.1,0.9,0.2,1.8,0.8,2.5c0.6,0.7,1.5,1,2.4,1l33,0.9
		c1.9,0.1,2.8-1,2.8-3.1l0.4-33.8c0-0.8-0.2-1.6-0.7-2.3c-0.5-0.6-1.2-1.1-2-1.1l-32.6-4.1C106.8,99.9,105.9,100.1,105.3,100.7z
		 M112.4,112.5c0-0.9,0.3-1.7,1-2.3c0.6-0.5,1.5-0.8,2.3-0.7l17.1,1.8c0.8,0.1,1.6,0.5,2.1,1.1c0.5,0.7,0.8,1.5,0.8,2.3l-0.2,18
		c0,0.8-0.3,1.6-0.9,2.3c-0.5,0.6-1.3,0.9-2.1,0.9l-17.2-0.8c-0.9,0-1.7-0.4-2.3-1.1c-0.6-0.7-0.9-1.6-0.9-2.5L112.4,112.5z"/>
	<path class="st0" d="M151.8,105.7c-0.7-0.1-1.4,0.1-1.9,0.6c-0.5,0.5-0.8,1.3-0.8,2.1v1.7c0,0.8,0.2,1.6,0.7,2.3
		c0.4,0.6,1.1,1,1.9,1.1c0.8,0.1,1.5,0.5,1.9,1.1c0.5,0.6,0.7,1.4,0.7,2.2l-0.1,17.2c0,0.8-0.3,1.6-0.8,2.1
		c-0.5,0.6-1.1,0.9-1.9,0.8l-1.6-0.1c-0.7,0-1.4,0.2-1.9,0.8c-0.5,0.6-0.8,1.4-0.8,2.2v1.8c0,0.8,0.2,1.6,0.8,2.2
		c0.5,0.6,1.2,0.9,1.9,0.9l14.6,0.4c0.7,0,1.4-0.3,1.8-0.8c0.5-0.6,0.7-1.3,0.7-2.1v-1.7c0-0.8-0.2-1.5-0.7-2.1
		c-0.4-0.6-1.1-0.9-1.8-0.9l-1.4-0.1c-0.7,0-1.4-0.4-1.8-1c-0.5-0.6-0.7-1.4-0.7-2.2l0.1-24.5c0-0.8-0.2-1.6-0.6-2.2
		c-0.5-0.6-1.1-0.9-1.9-1L151.8,105.7z"/>
	<path class="st0" d="M199.6,143.4l-0.2-29c0-0.7-0.2-1.4-0.5-1.9c-0.3-0.5-0.9-0.9-1.5-0.9l-23.5-3c-0.6-0.1-1.2,0.1-1.6,0.6
		c-0.5,0.5-0.7,1.2-0.7,1.9l-0.1,31.4c0,0.7,0.2,1.5,0.6,2.1c0.4,0.6,1.1,0.9,1.7,0.9l23.8,0.6C198.9,146,199.6,145.1,199.6,143.4z
		 M193.7,138c-0.3,0.5-0.9,0.8-1.5,0.7l-12.4-0.6c-0.7,0-1.3-0.4-1.6-0.9c-0.5-0.6-0.7-1.3-0.7-2.1V119c-0.1-0.7,0.2-1.5,0.7-2
		c0.4-0.4,1-0.7,1.6-0.6l12.3,1.4c0.6,0.1,1.2,0.4,1.5,0.9c0.4,0.6,0.6,1.3,0.6,2l0.1,15.4C194.3,136.8,194.1,137.5,193.7,138z"/>
	<path class="st0" d="M56.7,191.2c-0.8,0.8-1.9,1.3-3,1.4l-2.5,0.2c-1.2,0.1-2.3,0.6-3.1,1.4c-0.8,0.8-1.3,1.9-1.3,3l-0.1,2.4
		c-0.1,1,0.3,2.1,1.1,2.7c0.8,0.7,1.9,1,3,0.9l23.2-2.3c1.1-0.1,2.1-0.6,2.8-1.4c0.7-0.7,1.1-1.7,1.2-2.8l0.1-2.2
		c0.1-1-0.3-1.9-1-2.6c-0.7-0.7-1.7-1-2.7-0.9l-2.2,0.2c-1,0.1-2-0.2-2.8-0.9c-0.7-0.7-1.1-1.7-1-2.7l1.1-31.4c0.1-1-0.3-2-0.9-2.7
		c-0.8-0.7-1.8-1.1-2.9-1.1l-10.5-0.1c-1.1,0-2.2,0.4-3,1.1c-0.8,0.7-1.3,1.7-1.3,2.8l-0.1,2.1c-0.1,1.1,0.3,2.1,1,2.9
		c0.8,0.8,1.9,1.2,3,1.1c1.1-0.1,2.2,0.3,3,1.1c0.7,0.7,1.1,1.7,1.1,2.7L58,188.3C57.9,189.4,57.5,190.4,56.7,191.2z"/>
	<path class="st0" d="M89.6,152.5c-2,0-3.6,1.6-3.7,3.6c0,0,0,0,0,0l-1.1,40c-0.1,0.9,0.2,1.9,0.9,2.6c0.7,0.7,1.7,0.9,2.7,0.8
		l36.3-3.6c2-0.2,3-1.4,3.1-3.6l0.6-36.2c0-0.8-0.2-1.7-0.7-2.3c-0.5-0.7-1.4-1-2.2-0.9L89.6,152.5z M119.8,183.9
		c0,0.9-0.3,1.8-0.9,2.5c-0.6,0.7-1.4,1.1-2.3,1.2l-18.9,1.5c-0.9,0.1-1.8-0.2-2.5-0.9c-0.7-0.7-1-1.6-1-2.5l0.5-20.5
		c0-1,0.4-1.9,1.1-2.6c0.7-0.7,1.6-1,2.5-1l18.7-0.3c0.8,0,1.7,0.3,2.2,0.9c0.6,0.7,0.9,1.5,0.8,2.4L119.8,183.9z"/>
	<path class="st0" d="M139.7,184.8c-0.5,0.6-1.2,1-2,1.1l-1.7,0.1c-0.8,0.1-1.6,0.5-2.1,1.1c-0.6,0.7-0.9,1.5-0.9,2.4v2
		c0,0.8,0.2,1.7,0.8,2.3c0.5,0.6,1.3,0.8,2.1,0.7l15.9-1.6c0.8-0.1,1.5-0.5,2-1.1c0.5-0.7,0.8-1.5,0.8-2.3v-1.9
		c0-0.8-0.2-1.6-0.8-2.2c-0.5-0.5-1.2-0.8-1.9-0.7l-1.5,0.1c-0.7,0.1-1.5-0.2-1.9-0.8c-0.5-0.6-0.8-1.4-0.7-2.2l0.2-26.1
		c0-0.8-0.2-1.6-0.7-2.2c-0.5-0.6-1.2-0.9-2-0.9h-7.2c-0.8,0-1.5,0.3-2,0.9c-0.6,0.6-0.9,1.4-0.9,2.3v1.8c0,0.9,0.2,1.7,0.8,2.4
		c0.5,0.6,1.3,1,2.1,0.9c0.8,0,1.6,0.3,2.1,0.9c0.5,0.6,0.8,1.4,0.8,2.3l-0.2,18.3C140.6,183.4,140.3,184.2,139.7,184.8z"/>
	<path class="st0" d="M187.3,152.9l-25.4-0.1c-0.7,0-1.4,0.3-1.8,0.9c-0.5,0.6-0.8,1.4-0.8,2.1l-0.2,33.4c-0.1,0.8,0.2,1.5,0.6,2.2
		c0.5,0.5,1.2,0.8,1.9,0.7l25.7-2.6c1.4-0.1,2.2-1.2,2.2-3.1l-0.1-30.7c0-0.7-0.2-1.4-0.6-2C188.5,153.2,187.9,152.9,187.3,152.9z
		 M183.2,181.5c-0.3,0.6-0.9,0.9-1.6,1l-13.4,1c-0.7,0.1-1.3-0.2-1.8-0.8c-0.5-0.6-0.8-1.3-0.7-2.1l0.1-17.2c0-0.8,0.2-1.6,0.7-2.2
		c0.4-0.5,1.1-0.8,1.8-0.9l13.3-0.2c0.6,0,1.2,0.3,1.6,0.8c0.4,0.6,0.6,1.3,0.6,2v16.3C183.8,180.2,183.6,180.9,183.2,181.5
		L183.2,181.5z"/>
	<path class="st2" d="M28.2,233L28.2,233L28.2,233v-1.4c0-0.3,0-0.6,0-0.9c0.3-47.1,0.3-89,0-135.8h2.4c0.3,46.2,0.3,87.6,0,133.9
		c0.2,0.3,0.3,0.7,0.3,1.1c0,0.1,0,0.1,0,0.2c26.7-4.1,54.2-7.8,80.8-11.3c28.3-3.8,57.5-7.6,85.6-12h288.2c0-24.4,0-35.3,0-60.4
		v-1.2H506v2.4h-18.1c0,24.7,0,35.6,0,60.5v1.2H197.6c-28.1,4.4-57.4,8.3-85.6,12c-27.2,3.6-55.3,7.3-82.5,11.5L28.2,233z"/>
	<path class="st2" d="M29.7,80.4L0,76.6l0.3-2.4l27.1,3.4c0-7.3,0-37,0-57.2c0-12.2,0-18.6,0-18.9V0l1.5,0.5
		C56.5,9,85.3,17,113.2,24.8c28.8,8.1,58.5,16.4,86.9,25.2h55.2v2.4h-55.5l-0.2-0.1c-28.4-8.8-58.2-17.2-87-25.2
		C85.2,19.5,57,11.5,29.8,3.2c0,2.9,0,9.5,0,17.3c0,21.8,0,54.8,0,58.6L29.7,80.4z"/>
	<path class="st2" d="M487.9,133.1h-2.4c0-26.1,0-71.3,0-80.7H290.9V50h197v1.2C487.9,57,487.9,105.6,487.9,133.1z"/>
</g>
</svg>
